<svg version="1.2" xmlns="http://www.w3.org/2000/svg" viewBox="0 0 512 512" width="10" height="10">
	<title>brasil-Icon</title>
	<style>
		.s0 { fill: #6da544 } 
		.s1 { fill: #ffda44 } 
		.s2 { fill: #0052b4 } 
		.s3 { fill: #f0f0f0 } 
	</style>
	<g id="BR-Icon">
		<path id="Path 0" class="s0" d="m224 1.6c-5.8 0.8-14.8 2.3-20 3.4-5.2 1.1-13.6 3.1-18.5 4.5-4.9 1.5-13.3 4.2-18.5 6.1-5.2 2-15.8 6.6-23.5 10.4-7.7 3.7-18 9.4-23 12.5-5 3.1-14.2 9.5-20.5 14.3-6.3 4.8-17.2 14.3-24.1 21.2-6.9 6.9-15.6 16.3-19.3 21-3.7 4.7-10.4 13.9-14.8 20.5-4.4 6.6-11.5 19.2-15.8 28-4.3 8.8-9.7 21.4-12 28-2.2 6.6-5.2 16.3-6.5 21.5-1.3 5.2-3.4 15.3-4.7 22.5-2 11.4-2.2 16.4-2.2 40.5 0 24.1 0.2 29.1 2.2 40.5 1.3 7.1 3.4 17.3 4.7 22.5 1.3 5.2 3.7 13.3 5.3 18 1.7 4.7 4.4 12.1 6.2 16.5 1.7 4.4 6.1 13.6 9.7 20.5 3.5 6.9 9 16.3 12 21 3.1 4.7 9 13 13.2 18.5 4.2 5.5 13.2 15.6 20.1 22.5 6.9 7 16.3 15.7 21 19.4 4.7 3.7 13.5 10.1 19.5 14.1 6.1 4 16.2 10.1 22.5 13.4 6.3 3.3 16.4 8 22.5 10.5 6.1 2.4 16.2 6 22.5 7.9 6.3 1.9 16 4.4 21.5 5.6 5.5 1.1 15.3 2.7 21.8 3.6 7 0.9 19.3 1.5 30.7 1.5 11.4 0 23.9-0.6 31.3-1.6 6.7-0.8 17.4-2.7 23.7-4 6.3-1.4 18.3-4.8 26.5-7.5 8.7-2.9 21.7-8.3 31-12.8 8.8-4.4 21.6-11.7 28.5-16.3 6.9-4.5 16.1-11.2 20.5-14.7 4.4-3.6 13.6-12.1 20.5-19 6.9-6.9 16.4-17.8 21.2-24.1 4.8-6.3 11.2-15.6 14.3-20.5 3.1-4.9 9-15.7 13-24 4-8.2 9.1-20.2 11.3-26.5 2.2-6.3 5.4-17.1 7-24 1.7-6.9 3.9-17.4 4.9-23.5 1.4-8.7 1.8-16.6 1.8-37.5 0-20.9-0.4-28.8-1.8-37.5-1-6.1-3.2-16.6-4.9-23.5-1.6-6.9-4.8-17.7-7-24-2.2-6.3-7-17.8-10.7-25.5-3.7-7.7-9.4-18.3-12.6-23.5-3.3-5.2-10-14.9-15-21.5-4.9-6.6-14.6-17.7-21.5-24.6-6.9-6.9-16.1-15.4-20.5-19-4.4-3.5-13.6-10.2-20.5-14.7-6.9-4.6-19.7-11.9-28.5-16.3-9.4-4.6-22.2-9.9-31-12.8-8.2-2.7-20.2-6.1-26.5-7.5-6.3-1.3-17-3.2-23.8-4-7.9-1-19.4-1.6-32.4-1.5-11.4 0.1-24.9 0.7-30.8 1.5z"/>
		<path id="Path 1" class="s1" d="m149.8 178.3c-57.6 42.5-104.7 77.4-104.7 77.7 0 0.3 47.1 35.1 104.6 77.5 57.6 42.4 105.4 77 106.4 77 0.9 0 48.8-34.6 106.3-77 57.5-42.4 104.6-77.2 104.6-77.5 0-0.3-47.1-35.1-104.6-77.5-57.5-42.4-105.3-77.1-106.2-77.2-0.9-0.1-48.8 34.5-106.4 77z"/>
		<path id="Path 2" class="s2" d="m241.5 168c-2.8 0.5-8.2 1.9-12 3.1-3.8 1.2-9.7 3.5-13 5.1-3.3 1.7-8 4.4-10.5 6.1-2.5 1.7-7.6 6-11.4 9.6-3.7 3.6-8.7 9.3-11.1 12.6-2.3 3.3-5.2 7.9-6.4 10.3-1.1 2.3-2.1 4.5-2.1 5 0 0.4 3.5 0.2 7.8-0.5 4.2-0.7 13.8-1.5 21.2-1.9 8.3-0.4 17.7-0.2 24.5 0.5 6.1 0.7 15.3 2.1 20.5 3.1 5.2 1 13.8 3.3 19 5.1 5.2 1.7 13.1 4.7 17.5 6.7 4.4 1.9 11.8 5.6 16.5 8.2 4.7 2.7 12.3 7.6 17 11.1 4.7 3.4 12 9.4 16.3 13.3 4.3 3.9 8.1 6.7 8.5 6.3 0.4-0.5 0.7-7.7 0.6-16-0.1-13.5-0.4-16.2-2.7-23.9-1.5-4.9-4.1-11.6-5.8-15.1-1.7-3.4-5.1-8.9-7.4-12.2-2.4-3.3-7.4-9-11.1-12.6-3.8-3.6-8.9-7.9-11.4-9.6-2.5-1.7-7.3-4.4-10.7-6.2-3.5-1.7-10.2-4.3-15-5.7-6.9-2-11.6-2.7-21.3-2.9-6.9-0.2-14.7 0-17.5 0.5zm-42.5 83.1c-5.2 0.4-12.7 1.4-16.5 2.2-3.8 0.8-9 2-11.4 2.7l-4.4 1.1c1.1 11.9 2.6 19.1 3.9 23.7 1.3 4.5 3.8 11 5.5 14.5 1.8 3.4 4.5 8.2 6.2 10.7 1.7 2.5 6 7.6 9.6 11.4 3.6 3.7 9.3 8.7 12.6 11.1 3.3 2.3 8.8 5.7 12.3 7.4 3.4 1.7 10.1 4.3 15 5.8 7.8 2.4 10.2 2.7 24.2 2.7 14 0 16.4-0.3 24.3-2.7 4.8-1.5 11.5-4.1 15-5.8 3.4-1.7 8.9-5 12.2-7.4 3.3-2.3 9.5-7.9 13.8-12.4 6.1-6.4 7.5-8.5 6.8-9.8-0.5-1-4.9-5.9-9.8-10.8-4.9-4.9-11.4-10.9-14.4-13.2-2.9-2.3-9.2-6.5-13.9-9.5-4.7-2.9-12.8-7.2-18-9.5-5.2-2.3-13.3-5.3-18-6.6-4.7-1.4-13-3.2-18.5-4-5.5-0.9-13.8-1.8-18.5-2-4.7-0.2-12.8-0.1-18 0.4z"/>
		<path id="Path 3" class="s3" d="m198 217.5c-0.8 0.2-6.2 0.9-12 1.6-5.8 0.7-10.8 1.2-11.3 1.1-0.4-0.1-1.8 3.3-3.1 7.5-1.4 4.3-2.9 10.7-3.5 14.3-0.6 3.6-1.1 8.4-1.1 10.8 0 3.5 0.3 4.1 1.8 3.8 0.9-0.3 4.4-1.1 7.7-1.9 3.3-0.8 7.8-1.8 10-2.2 2.2-0.4 8.5-1 14-1.5 5.5-0.4 15.2-0.4 21.5 0.1 6.3 0.4 15.8 1.7 21 2.9 5.2 1.1 12.4 3 16 4.1 3.6 1.2 10.8 4.2 16 6.6 5.2 2.4 13.8 7.3 19 10.7 5.2 3.5 12.8 9.2 16.8 12.7 4 3.5 9.7 9.2 12.7 12.7l5.5 6.2c3-4.3 5.4-8.9 7.3-13 2-4.1 4.4-10.6 5.5-14.4l1.9-6.9c-12.6-11.1-20-17.2-24.7-20.6-4.7-3.5-12.3-8.4-17-11.1-4.7-2.6-12.1-6.3-16.5-8.2-4.4-2-12.3-5-17.5-6.7-5.2-1.8-13.8-4-19-5.1-5.2-1-13.9-2.4-19.3-2.9-5.3-0.6-14.3-1-19.9-1-5.7 0.1-11 0.3-11.8 0.4z"/>
	</g>
</svg>