<svg width="850" height="17" viewBox="0 0 1300 30" fill="none" xmlns="http://www.w3.org/2000/svg">
<g clip-path="url(#clip0_155_53)">
<path fill-rule="evenodd" clip-rule="evenodd" d="M1030.7 25.212C1033.2 24.7891 1033.2 24.1549 1034.04 23.732C1035.29 23.0977 1032.8 22.6749 1028.63 22.6749C1026.69 22.8158 1024.74 22.9568 1022.8 23.0977C1013.22 23.732 1003.64 24.3663 993.225 24.3663C989.06 24.3663 984.896 24.3663 980.731 24.3663C973.651 24.5777 966.571 24.5777 961.163 23.5206C959.083 23.0978 955.751 23.0977 952.835 23.3092C951.586 23.3092 950.335 23.5206 949.502 23.5206C938.25 25.0006 924.925 24.7891 912.013 25.212C910.763 25.212 909.514 25.212 908.266 25.0006C906.6 25.0006 905.352 24.7891 905.354 24.3663C905.355 24.1549 905.773 23.9434 906.19 23.732C907.863 22.4635 906.198 22.2521 899.951 22.4635C890.785 23.0978 881.621 23.5206 872.041 23.9434C865.792 24.3663 859.128 24.3663 852.463 24.7891C848.715 24.7891 844.966 25.0006 841.633 25.212C835.799 25.8463 829.968 26.0577 823.721 26.0577C819.834 26.0577 816.362 26.3396 813.306 26.9034C807.887 27.7491 800.804 28.3834 793.308 28.3834C782.478 28.8062 771.648 29.2291 760.821 29.2291C754.156 29.4405 747.493 29.4405 740.828 29.8633C736.662 30.0748 733.749 29.6519 732.921 28.8062C732.507 28.3834 732.509 27.9605 732.094 27.7491C730.433 26.692 725.021 26.4805 720.853 27.1148C719.186 27.3262 717.518 27.7491 716.267 27.9605C714.599 28.3834 713.348 28.8062 710.848 29.0176C708.764 29.2291 706.265 29.4405 703.767 29.2291C701.271 28.8062 702.106 28.3834 702.941 27.9605C703.776 27.5377 705.445 26.9034 705.864 26.4805C706.699 26.0577 705.451 25.8463 703.37 25.6348C701.29 25.212 698.374 25.4234 696.707 25.6348C694.622 26.0577 694.202 26.692 693.367 27.1148C691.695 28.3834 690.862 28.3834 683.783 28.1719C682.118 28.031 680.453 27.89 678.788 27.7491C676.29 27.7491 673.792 27.5377 671.709 27.7491C665.458 28.3834 658.38 28.1719 652.546 28.8062C650.879 29.0176 648.381 29.0176 646.717 28.5948C645.469 28.3834 645.472 27.7491 647.556 27.5377C650.474 26.9034 654.223 26.692 658.389 26.4805C663.805 26.0577 665.058 25.4234 662.564 24.5777C661.456 24.1549 659.652 23.9434 657.153 23.9434C647.991 23.9434 639.244 24.3663 630.911 25.0006C628.966 25.2825 627.854 25.6348 627.574 26.0577C627.574 26.0577 627.989 26.2691 627.572 26.4805C626.316 27.7491 622.149 28.1719 615.488 27.7491C610.492 27.5377 606.33 27.1148 601.751 26.692C598.005 26.2691 596.755 26.4805 594.254 26.9034C593.42 27.1148 593.002 27.3262 592.168 27.5377C590.5 27.9605 588 28.1719 584.669 28.1719C579.672 28.031 574.675 27.89 569.679 27.7491C564.265 27.7491 560.519 27.3262 558.026 26.2691C555.117 25.212 554.701 25.0006 547.62 25.4234C543.454 25.6348 540.123 25.4234 537.212 24.7891C533.051 24.0844 528.055 23.8025 522.224 23.9434C515.142 24.3663 509.734 23.3092 502.656 23.0977C508.075 22.0406 509.742 21.8292 516.405 21.8292C521.404 21.6178 526.4 21.8292 531.398 21.6178C532.233 21.4064 533.483 21.1949 533.483 21.1949C533.484 20.9835 532.653 20.5607 531.82 20.5607C527.658 20.1378 523.079 19.9264 518.498 19.9264C507.669 20.0673 496.84 20.2788 486.011 20.5607C481.847 20.5607 481.428 20.9835 483.09 21.6178C483.922 21.8292 484.754 22.0406 485.169 22.252C486.001 22.4635 486 22.6749 484.749 22.8863C483.917 22.8863 482.251 22.8863 481.418 22.8863C478.92 22.7454 476.7 22.5339 474.758 22.252C471.844 22.0406 469.348 21.6178 466.435 21.1949C460.608 20.5607 454.779 20.3492 448.113 20.7721C445.197 20.9835 441.449 20.9835 438.534 20.9835C426.459 20.5607 415.214 20.7721 403.551 21.1949C399.803 21.1949 396.055 21.1949 392.308 20.9835C388.978 20.7721 386.064 20.5607 382.734 20.1378C378.987 19.9264 373.986 20.7721 371.075 19.9264C368.579 19.5035 368.583 18.6578 366.503 18.235C365.257 17.6007 361.927 17.3893 359.01 17.6007C348.18 18.0236 337.355 17.6007 326.527 17.6007C322.781 17.3893 319.864 17.6007 316.532 17.8121C305.699 18.6578 294.039 18.6578 281.964 18.235C276.135 18.0236 269.888 18.0236 263.639 18.4464C257.39 18.8693 250.726 19.0807 244.484 18.235C241.154 17.8121 237.822 18.0236 234.489 18.235C225.323 19.0807 214.914 18.6578 205.333 19.0807C203.667 19.0807 202.003 18.8693 202.005 18.4464C202.006 18.235 202.841 17.8121 202.843 17.3893C203.262 16.9664 199.932 16.755 198.681 16.9664C192.011 18.235 183.267 18.0236 174.522 18.0236C173.272 18.0236 172.023 18.0236 170.774 18.0236C156.611 18.6578 141.623 17.8121 127.047 18.0236C122.049 18.0236 117.053 17.8121 112.474 17.3893C99.9876 16.1207 87.0776 16.1207 74.1677 16.1207C66.6709 16.2617 59.1741 16.4026 51.6773 16.5436C44.1812 16.5436 36.6851 16.5436 29.6032 16.9664C27.1034 17.1779 23.7719 17.1779 20.8579 16.9664C17.5263 16.9664 15.0287 16.755 13.7827 16.1207C7.96267 14.2179 2.55908 12.3151 0.90463 10.2009C-0.336777 8.72089 2.16528 8.08662 9.66361 7.66377C12.9963 7.45234 16.3279 7.45234 19.2431 7.45234C37.5691 7.02949 55.0656 5.97237 71.7303 4.70383C77.9793 4.28098 83.8118 3.85813 90.4749 3.85813C91.3079 3.85813 92.5561 4.06956 92.9737 3.85813C100.059 2.80101 109.219 3.22386 117.549 3.01243C120.464 3.01243 123.796 2.80101 125.88 2.58958C132.13 1.95531 138.377 1.95531 145.456 1.95531C151.286 2.16674 156.7 1.95531 162.532 1.74389C171.28 1.32104 180.443 1.10961 189.606 0.89819C190.716 0.89819 191.965 0.89819 193.354 0.89819C201.681 1.10961 203.765 0.898189 212.096 0.47534C217.929 0.0524913 224.037 -0.08846 230.422 0.0524896L254.157 0.47534C258.876 0.61629 263.456 0.757241 267.898 0.89819C273.726 1.32104 279.556 1.32104 285.386 1.32104C295.798 1.32104 306.209 1.32104 316.615 2.16673C319.113 2.37816 321.195 2.37816 323.695 2.16673C335.773 1.95531 347.016 2.16673 358.255 3.22386C362.417 3.6467 366.995 4.06955 372.412 3.64671C374.494 3.64671 377.408 3.85813 379.906 3.85813C382.405 3.85813 385.319 4.06956 387.403 3.85813C392.82 3.22386 398.648 3.6467 404.479 3.43528C409.893 3.43528 414.474 3.43528 417.383 4.4924C418.215 4.70383 420.296 4.91525 421.963 4.70383C426.962 4.4924 429.458 4.91525 431.953 5.54952C435.28 6.39522 436.946 6.39522 441.53 5.97237C441.808 5.83143 442.086 5.76095 442.363 5.76095C445.28 5.54953 447.365 4.91525 450.697 4.91525C455.277 5.12668 454.023 5.97237 455.27 6.39522C456.517 6.81807 459.015 7.0295 461.514 6.81807C462.765 6.60665 463.598 6.60665 464.848 6.39522C477.349 5.12667 490.675 5.12668 504.412 6.1838C505.66 6.39522 507.325 6.60665 508.991 6.60665C515.655 6.39522 521.483 6.81807 527.311 7.24092C529.809 7.45235 532.724 7.45234 535.639 7.45234C538.971 7.31139 542.303 7.24092 545.635 7.24092C549.798 7.45235 553.963 7.45235 556.457 8.29804C558.536 8.93232 561.45 9.14374 564.781 9.14374C572.276 9.35517 579.77 9.77801 587.266 9.77801C592.68 9.77801 597.261 9.77801 601.012 9.14374C603.097 8.72089 606.428 8.72089 609.342 8.93232C613.92 9.56659 618.917 9.56659 623.5 9.14374C628.916 8.72089 634.328 9.14374 639.741 9.35517C645.985 9.77801 648.895 10.8351 646.807 11.8923C645.553 12.738 645.966 13.3722 647.211 14.2179C648.457 14.8522 650.118 15.6979 650.53 16.5436C650.523 17.8121 657.599 18.4464 663.848 18.0236C667.599 17.6007 670.932 17.1779 675.511 17.6007C677.176 17.8121 678.426 17.6007 680.093 17.3893C685.649 16.6845 691.067 15.9093 696.347 15.0636C698.847 14.8522 698.434 14.2179 695.936 14.0065C691.775 13.3722 687.195 13.1608 681.782 13.1608C679.698 13.3722 677.616 13.3722 675.534 13.3722C670.12 13.3722 665.953 13.7951 663.033 14.6408C660.949 15.0636 656.786 14.8522 655.955 14.4294C655.401 14.1475 654.986 13.8656 654.71 13.5837C652.224 11.258 653.474 11.0466 667.219 10.6237C675.132 10.6237 682.63 10.2009 690.958 10.4123C692.623 10.6237 695.123 10.4123 696.79 10.2009C704.29 9.35517 713.034 9.56659 721.362 9.77801C724.277 9.77801 725.108 10.2009 724.688 10.8351C724.687 11.0466 724.269 11.258 724.269 11.258C724.267 11.6808 726.347 12.1037 728.429 12.1037C732.179 11.8923 735.511 11.6808 739.261 11.4694C744.674 11.4694 749.673 11.258 755.084 11.6808C759.247 12.1037 764.245 11.8923 768.827 11.6808C773.41 11.258 777.575 11.258 782.154 11.6808C787.565 12.1037 793.395 12.1037 799.227 11.8923C801.727 11.6808 804.225 11.6808 806.723 11.8923C808.805 11.8923 810.052 12.3151 809.217 12.738C807.966 12.9494 806.715 13.3722 805.881 13.5837C805.463 13.7951 805.879 14.0065 807.127 14.2179C808.514 14.3589 810.041 14.4294 811.707 14.4294C816.286 14.6408 818.371 14.2179 818.376 13.3722C818.381 12.3151 818.798 12.3151 822.963 12.1037C826.296 11.8923 830.045 11.6808 833.792 11.8923C840.454 12.1037 847.117 12.1037 854.197 12.1037C858.778 12.1037 862.943 11.8923 867.11 11.4694C875.026 10.8351 882.94 10.6237 891.265 11.258C897.093 11.6808 903.34 11.6808 910.003 11.6808C917.917 11.4694 925.415 11.0466 933.328 11.0466C948.737 10.8351 963.733 10.2009 979.558 10.2009C991.218 10.2009 1002.88 9.98944 1014.96 9.77801C1022.46 9.56659 1029.95 9.56659 1037.45 9.56659C1039.53 9.56659 1041.61 9.56659 1043.7 9.35517C1048.28 9.35517 1053.69 9.14374 1058.27 9.14374C1062.85 9.35517 1066.6 9.35516 1070.35 8.93232C1073.68 8.72089 1076.18 8.93232 1077.84 9.35517C1079.51 9.77801 1079.09 10.2009 1077.42 10.6237C1074.92 11.258 1071.59 11.6808 1066.59 11.4694C1065.76 11.4694 1064.92 11.4694 1064.09 11.4694C1059.65 11.3285 1057.01 11.5399 1056.17 12.1037C1055.34 12.738 1057.83 13.5837 1061.58 13.7951C1066.16 14.0065 1070.74 14.0065 1074.91 13.5837C1079.07 13.1608 1083.24 12.9494 1086.99 12.3151C1089.49 11.8923 1091.99 11.4694 1094.49 11.0466C1099.49 10.4123 1099.91 10.4123 1104.49 11.258C1106.57 11.4694 1108.23 11.6808 1111.15 11.6808C1112.81 11.6808 1114.48 11.6808 1115.73 11.6808C1118.23 11.8923 1119.89 12.3151 1122.8 12.3151C1126.55 12.1037 1129.47 11.6808 1131.97 11.0466C1132.81 10.8351 1133.64 10.4123 1134.89 9.98944C1137.4 9.35516 1141.56 9.14374 1145.72 9.56659C1146.14 9.56659 1146.56 9.56659 1146.56 9.56659C1153.63 11.258 1161.96 10.6237 1169.04 9.77801C1174.88 9.14374 1179.88 8.72089 1186.54 9.14374C1189.04 9.35517 1191.53 9.35516 1194.04 8.93232C1198.2 8.50947 1203.2 8.50947 1208.2 8.50947C1215.28 8.72089 1221.94 8.72089 1227.77 7.87519C1230.27 7.66377 1233.19 7.66377 1236.1 7.66377L1249.85 7.45234C1259.01 7.45234 1267.76 7.24092 1276.09 6.60665C1281.64 6.1838 1287.34 6.04285 1293.16 6.1838C1295.66 6.1838 1298.16 6.39522 1299.41 6.81807C1299.82 7.24092 1298.99 7.66377 1297.74 7.87519C1286.07 9.77801 1276.89 12.3151 1261.48 13.5837C1255.22 14.2179 1250.22 15.0636 1243.97 15.6979C1238.97 16.3322 1235.64 17.1779 1235.21 18.4464C1234.37 19.715 1230.62 20.1378 1224.37 20.5607C1218.96 20.9835 1213.54 21.1949 1207.3 20.9835C1204.38 20.7721 1201.05 20.7721 1198.55 20.9835C1193.97 21.4064 1190.64 21.1949 1187.73 20.5607C1186.48 20.3492 1184.4 20.3492 1183.15 20.3492C1177.73 20.3492 1173.15 20.3492 1168.57 19.715C1166.49 19.5035 1164.41 19.715 1162.33 19.9264C1157.88 20.2083 1153.58 20.4902 1149.41 20.7721C1146.64 20.913 1144.14 20.8426 1141.92 20.5607C1140.25 20.3492 1139 20.1378 1139.01 19.9264C1139.01 19.5035 1140.67 19.5035 1142.34 19.2921C1143.73 19.2921 1144.98 19.3626 1146.09 19.5035C1155.25 19.5035 1157.75 19.0807 1158.59 17.6007C1158.87 17.1779 1159.15 16.6845 1159.43 16.1207C1159.85 15.2751 1158.6 15.0636 1153.61 15.0636C1146.11 15.275 1138.61 15.275 1132.78 16.3322C1130.69 16.755 1127.78 16.9664 1124.86 16.9664C1117.37 16.9664 1112.36 18.0236 1106.95 18.6578C1106.11 18.6578 1105.28 18.8693 1105.69 19.0807C1105.69 19.2921 1106.94 19.5035 1108.19 19.5035C1109.44 19.715 1111.52 19.715 1112.77 19.715C1115.27 19.574 1117.77 19.4331 1120.27 19.2921C1123.6 19.2921 1126.93 19.5035 1127.34 19.9264C1128.59 20.5607 1126.92 20.9835 1124.84 21.4064C1121.09 22.0406 1116.92 22.2521 1112.34 22.4635C1106.79 22.6044 1101.37 22.7454 1096.1 22.8863C1092.76 23.0273 1089.85 23.3092 1087.35 23.732C1082.76 24.5777 1079.84 25.4234 1082.33 26.692C1083.58 27.1148 1081.49 27.5377 1078.58 27.9605C1076.5 27.9605 1074.41 27.7491 1074.42 27.3262C1074.42 27.1148 1074.83 26.9034 1074.84 26.4805C1074.01 25.212 1069.43 24.7891 1062.77 25.212C1058.6 25.6348 1054.85 25.6348 1050.69 25.4234C1045.28 25.212 1041.53 25.4234 1038.61 26.2691C1036.94 26.692 1035.69 26.9034 1034.02 27.3262C1032.77 27.5377 1031.1 27.7491 1029.44 27.7491C1018.61 27.1148 1007.78 27.5377 996.955 27.7491C986.543 27.7491 976.132 27.7491 965.72 27.9605L956.557 28.1719C956.14 28.1719 955.309 27.9605 954.893 27.7491C954.893 27.7491 955.311 27.5377 956.144 27.5377C958.228 27.1148 961.146 26.692 964.06 26.9034C972.803 27.3262 980.302 26.692 988.217 26.2691C992.799 26.0577 996.551 25.4234 1001.55 25.8463C1003.21 26.0577 1004.46 25.6348 1005.71 25.4234C1006.96 25.212 1008.21 25.0006 1010.3 24.7891C1019.88 23.9434 1020.3 23.9434 1030.7 25.212ZM934.947 19.715C934.946 19.9264 934.527 20.3492 934.941 20.7721C937.016 22.252 939.097 22.4635 947.013 21.8292C952.845 21.4064 955.347 20.7721 957.85 19.9264C959.102 19.5035 957.439 19.0807 954.94 19.0807C953.829 19.0807 952.58 19.0807 951.192 19.0807C945.777 19.2921 944.948 18.4464 946.618 17.8121C949.538 16.755 952.875 15.9093 960.371 15.9093C964.535 15.9093 967.453 15.4865 969.955 14.8522C973.706 14.2179 974.96 13.3722 972.464 12.9494C969.134 12.5265 966.217 12.9494 963.301 13.1608C956.635 13.5837 950.385 14.2179 942.893 13.3722C941.229 13.1608 939.147 13.1608 937.063 13.3722C932.34 13.936 927.756 14.4998 923.311 15.0636C921.228 15.275 920.394 15.4865 921.225 15.9093C922.333 16.3322 923.163 16.755 923.716 17.1779C924.269 17.6007 925.517 17.8826 927.46 18.0236C929.126 18.0236 930.791 18.094 932.456 18.235C934.538 18.235 935.785 18.6578 935.783 19.0807C935.782 19.2921 935.365 19.5035 934.947 19.715ZM696.722 22.8863C697.554 22.8863 697.971 22.8863 698.387 22.8863C710.882 22.6044 723.239 22.3225 735.456 22.0406C737.955 22.0406 740.039 21.6178 742.122 21.4064C745.04 20.9835 744.628 20.1378 740.882 19.715C736.72 19.2921 732.557 19.0807 729.22 19.9264C725.469 20.5607 720.054 20.7721 714.64 20.7721C709.225 20.9835 705.897 20.3492 702.569 19.715C700.904 19.5035 698.405 19.5035 696.739 19.715C694.239 19.9264 691.738 20.3492 689.653 20.7721C685.902 21.4064 687.978 22.4635 693.39 22.8863C694.639 22.8863 695.889 22.8863 696.722 22.8863ZM591.389 17.6007C583.892 17.6007 578.476 18.0236 573.059 18.6578C570.976 18.8693 570.971 19.715 573.469 19.9264C578.185 20.4902 583.041 20.9835 588.036 21.4064C592.199 21.8292 596.363 21.8292 599.282 21.1949C601.783 20.7721 604.284 20.3492 606.785 19.9264C610.951 19.5035 610.538 18.8693 606.376 18.4464C601.382 17.8121 595.967 18.0236 591.389 17.6007ZM1018.25 17.3893C1012.83 18.0236 1006.17 17.6007 999.923 17.8121C994.647 18.094 989.37 18.3055 984.095 18.4464C981.595 18.6578 979.511 18.8693 978.676 19.2921C977.425 19.715 977.422 20.1378 979.086 20.5607C980.749 20.9835 983.248 20.9835 985.748 20.7721C991.998 20.1378 998.662 19.9264 1005.74 19.715C1011.57 19.715 1017.41 19.2921 1021.16 18.4464C1021.58 18.235 1021.58 18.0236 1021.58 17.8121C1021.16 17.6007 1019.5 17.6007 1018.25 17.3893ZM511.447 14.4294C508.949 14.4294 506.45 14.4294 504.784 14.4294C495.201 15.275 485.621 15.6979 475.21 15.6979C474.377 15.6979 473.126 15.9093 473.125 16.1207C473.123 16.5436 474.788 16.755 476.453 16.755C483.116 16.755 489.641 16.6845 496.028 16.5436C497.693 16.5436 499.776 16.5436 500.61 16.3322C505.195 15.4865 510.61 15.275 516.856 15.4865C518.104 15.6979 518.938 15.4865 518.94 15.0636C518.941 14.8522 518.11 14.6408 516.86 14.6408C515.196 14.4294 513.113 14.4294 511.447 14.4294ZM1054.88 20.9835C1051.55 20.9835 1048.21 21.1949 1045.3 21.4064C1043.21 21.4064 1041.96 21.8292 1041.54 22.252C1041.13 22.6749 1042.79 22.8863 1044.87 23.0977C1047.37 23.2387 1050.01 23.3797 1052.78 23.5206C1058.19 23.732 1062.36 23.5206 1066.11 22.6749C1068.61 22.2521 1067.78 21.4064 1064.45 21.4064C1061.54 21.1949 1058.21 20.9835 1054.88 20.9835ZM755.479 15.6979H780.466C784.908 15.6979 788.797 15.416 792.131 14.8522C792.548 14.8522 792.965 14.6408 792.965 14.6408C792.55 14.4294 792.135 14.2179 791.302 14.2179C786.029 13.7951 780.892 13.8656 775.892 14.4294C769.642 15.0636 762.978 15.275 755.9 14.8522C753.402 14.8522 750.904 14.6408 749.235 15.275C748.401 15.4865 750.897 15.9093 755.479 15.6979ZM1007.03 13.3722C1008.69 13.3722 1010.36 13.3722 1012.02 13.3722C1017.02 13.3722 1021.6 12.9494 1026.19 12.5265C1026.6 12.5265 1027.44 12.3151 1027.44 12.3151C1027.44 12.1037 1026.61 11.8923 1026.19 11.8923C1022.45 11.4694 1018.28 11.258 1014.53 11.6808C1010.78 12.3151 1006.61 12.5265 1002.03 12.5265C1000.37 12.5265 998.701 12.738 998.699 13.1608C999.113 13.5837 1001.2 13.5837 1003.28 13.3722C1004.67 13.3722 1005.92 13.3722 1007.03 13.3722ZM655.082 21.8292C660.079 22.0406 663.411 21.8292 666.329 21.4064C667.996 21.1949 668.413 20.9835 667.166 20.5607C666.336 20.1378 664.254 19.9264 662.171 20.1378C658.422 20.3492 655.089 20.5607 650.926 20.3492C649.26 20.3492 648.01 20.5607 647.591 20.9835C647.172 21.4064 648.42 21.6178 650.501 21.8292C652.584 21.8292 654.666 21.8292 655.082 21.8292ZM612.212 17.3893C612.209 18.0236 614.289 18.4464 615.956 18.235C618.874 17.6007 623.037 17.8121 626.37 17.6007C628.037 17.3893 629.288 17.1779 628.872 16.9664C628.875 16.5436 627.626 16.3322 625.96 16.3322C621.382 15.9093 616.8 16.1207 613.465 16.755C612.631 16.9664 612.212 17.3893 612.212 17.3893ZM541.857 12.738C542.69 12.738 543.939 12.738 545.189 12.738C547.689 12.5265 548.94 12.1037 548.11 11.6808C547.279 11.258 544.783 10.8351 542.283 11.0466C540.061 11.1875 537.839 11.3285 535.617 11.4694C534.784 11.4694 533.95 11.6808 534.367 11.6808C534.365 11.9627 534.781 12.1742 535.613 12.3151C537.276 12.738 539.359 12.738 541.857 12.738ZM1043.67 14.4294C1044.92 14.4294 1046.17 14.4294 1047 14.4294C1048.67 14.2179 1050.33 14.2179 1050.33 13.7951C1050.34 13.5837 1049.09 13.3722 1047.42 13.1608C1046.31 13.1608 1045.2 13.1608 1044.09 13.1608C1040.34 13.1608 1037.43 13.3722 1037.84 13.7951C1038.25 14.4293 1041.17 14.4294 1043.67 14.4294ZM1183.2 10.2009C1179.87 10.2009 1177.37 10.6237 1177.78 11.258C1178.2 11.4694 1179.45 11.6808 1181.11 11.6808C1184.86 11.6808 1187.78 11.258 1187.36 10.8351C1186.95 10.4123 1185.28 10.2009 1183.2 10.2009ZM898.327 14.6408C899.158 14.8522 899.99 15.0636 900.823 15.0636C903.738 15.0636 907.073 14.4293 907.493 13.7951C907.91 13.7951 907.078 13.5837 906.661 13.5837C904.58 13.3722 902.497 13.5837 900.831 13.5837C899.164 13.7951 897.912 14.2179 898.327 14.6408ZM859.976 21.6178C858.866 21.6178 857.894 21.6178 857.061 21.6178C855.812 21.6178 854.145 21.8292 853.727 22.0406C853.308 22.4635 855.805 22.8863 857.472 22.6749C859.693 22.6749 861.637 22.6044 863.303 22.4635C864.554 22.2521 865.386 22.252 864.972 21.8292C864.972 21.8292 864.14 21.6178 863.308 21.6178C862.058 21.6178 860.809 21.6178 859.976 21.6178ZM617.578 26.2691C617.58 25.8463 616.333 25.4234 614.251 25.4234C612.169 25.4234 610.087 25.4234 609.252 25.8463C608.833 26.2691 610.495 26.9034 612.994 26.9034C615.493 26.9034 616.743 26.692 617.578 26.2691ZM1187.74 18.4464C1190.65 18.4464 1193.16 17.8121 1192.32 17.3893C1191.91 17.1779 1191.08 17.1779 1190.66 17.1779C1187.74 17.1779 1185.66 17.3893 1185.66 17.8121C1185.66 18.235 1186.49 18.235 1187.74 18.4464ZM538.094 15.4865C539.345 15.275 538.513 15.0636 537.681 14.8522C536.017 14.6408 534.351 14.6408 533.516 15.0636C532.682 15.275 533.514 15.4865 534.763 15.4865C536.011 15.6979 537.677 15.6979 538.094 15.4865ZM927.014 23.5206C928.263 23.5206 929.514 23.3092 929.515 23.0977C929.515 23.0977 928.683 22.8863 927.85 22.8863C927.434 22.8863 926.6 23.0977 926.183 23.0977C925.766 23.3092 926.182 23.3092 927.014 23.5206ZM449.391 15.4865C448.28 15.4865 447.725 15.5569 447.724 15.6979C447.724 15.6979 448.139 15.9093 448.556 15.9093C449.111 15.9093 449.806 15.8388 450.639 15.6979L449.391 15.4865ZM760.017 23.732H759.601C759.045 23.732 758.49 23.732 757.935 23.732L758.35 23.9434L760.017 23.732ZM707.6 13.3722C707.601 13.1608 707.601 13.1608 707.601 13.1608C706.77 12.9494 705.937 12.9494 705.936 13.1608L706.351 13.3722C706.906 13.3722 707.323 13.3722 707.6 13.3722ZM592.605 23.732C592.606 23.5911 592.19 23.5206 591.357 23.5206C590.246 23.5206 589.829 23.5911 590.106 23.732C590.383 23.873 590.66 23.9434 590.938 23.9434C591.771 23.9434 592.327 23.873 592.605 23.732ZM1194.42 14.6408C1194.42 14.4998 1194.01 14.4998 1193.17 14.6408H1193.59C1193.59 14.6408 1194 14.6408 1194.42 14.6408Z" fill="#B9272D"/>
<path d="M479.745 24.1552C481.411 24.1552 482.659 24.3666 482.657 24.7894C482.656 25.0008 481.405 25.2123 479.74 25.2123C478.074 25.2123 476.409 25.0009 476.411 24.578C476.412 24.3666 478.079 24.1552 479.745 24.1552Z" fill="#B9272D"/>
<path d="M1136.48 25.2123C1136.89 25.2123 1137.73 25.4237 1137.73 25.4237C1138.14 25.6351 1137.31 25.8466 1136.06 25.8466C1135.64 25.8466 1134.81 25.6351 1134.81 25.6351C1134.53 25.3532 1135.09 25.2123 1136.48 25.2123Z" fill="#B9272D"/>
<path d="M1124.07 10.2012L1123.65 10.4115L1123.23 10.2012H1124.07Z" fill="#B9272D"/>
</g>
<defs>
<clipPath id="clip0_155_53">
<rect width="1298.9" height="29.918" fill="white" transform="matrix(1 0 -0.00536308 0.999986 0.652985 0)"/>
</clipPath>
</defs>
</svg>
