<svg width="1340" height="52" viewBox="0 0 1340 52" fill="none" xmlns="http://www.w3.org/2000/svg">
<g clip-path="url(#clip0_240_8)">
<path fill-rule="evenodd" clip-rule="evenodd" d="M1284.48 34.6428C1283.64 34.6428 1281.66 34.6428 1279.69 34.5121C1276.58 34.3813 1273.76 34.3813 1271.23 34.9043C1269.25 35.1657 1266.71 35.2965 1264.18 35.2965C1261.73 35.3836 1259.29 35.5144 1256.84 35.6887C1253.74 35.9502 1250.64 36.0809 1247.25 36.2117C1243.59 36.3424 1240.49 36.4731 1237.66 35.9502C1235.69 35.6887 1233.43 35.6887 1232.02 36.0809C1228.92 37.1268 1224.13 37.2576 1218.77 37.2576C1215.1 37.1268 1211.43 37.2576 1208.05 37.5191C1204.67 37.7805 1201.85 37.6498 1199.02 37.2576C1197.05 36.9961 1195.64 37.1268 1195.92 37.5191C1195.92 38.042 1196.21 38.4342 1193.67 38.565C1191.69 38.8264 1190.56 38.4342 1189.15 38.1728C1187.18 37.7805 1186.05 37.7805 1184.92 38.3035C1182.67 38.9572 1179.85 39.4801 1175.34 39.3494C1171.57 39.3494 1168.85 39.0444 1167.15 38.4342C1166.59 38.1728 1166.02 38.042 1165.46 37.7805C1165.18 37.6498 1164.33 37.6498 1163.77 37.6498C1163.2 37.7805 1162.92 37.9113 1162.92 38.042C1162.36 38.3035 1163.2 38.6957 1164.05 38.9572C1165.75 39.7416 1163.77 40.2646 1159.54 40.1338C1158.6 40.1338 1157.76 40.0903 1157 40.0031C1154.93 39.8288 1153.24 39.916 1151.93 40.2646C1150.23 40.6568 1148.26 40.7875 1145.72 40.6568C1142.9 40.6568 1139.8 40.7876 1137.26 41.049C1135.57 41.1798 1133.88 41.3105 1131.9 41.1797C1129.93 40.9183 1128.23 40.9183 1126.26 41.1797C1125.41 41.3105 1124.57 41.3105 1123.72 41.3105C1117.8 41.7027 1115.82 41.4412 1113 40.2646C1113 40.1774 1112.91 40.1338 1112.72 40.1338C1112.15 39.8724 1111.31 39.6109 1109.61 39.7416C1108.2 39.8724 1106.79 40.1339 1106.8 40.3953C1107.08 40.6568 1107.64 40.9183 1107.93 41.1797C1108.49 41.5284 1108.02 41.7463 1106.52 41.8334C1102.94 42.0078 1099.37 42.1821 1095.8 42.3564C1093.26 42.4872 1091 42.3564 1089.59 41.8334C1088.75 41.572 1087.34 41.572 1086.49 41.9642C1085.93 41.9642 1085.93 42.0949 1085.65 42.2257C1085.08 42.3564 1084.8 42.4871 1083.95 42.4871C1083.39 42.4871 1082.82 42.3564 1082.54 42.2257C1081.98 42.0949 1081.98 41.8335 1081.41 41.572C1081.13 41.3105 1080.28 41.1797 1078.87 41.1797C1077.37 41.1797 1076.43 41.3541 1076.05 41.7027C1075.77 41.7027 1075.77 41.7027 1075.77 41.8334C1077.18 42.4871 1075.49 42.7486 1072.67 42.7486C1071.54 42.8794 1070.42 43.0101 1069.29 43.1408C1067.31 43.2716 1065.62 43.0101 1065.9 42.4871C1065.9 42.4 1065.99 42.3128 1066.18 42.2257C1066.75 41.9642 1066.75 41.7027 1065.33 41.572C1063.64 41.3105 1061.67 41.3105 1060.26 41.572C1058.85 41.8335 1058 42.2257 1057.72 42.6179C1057.44 42.7486 1057.16 43.0101 1056.88 43.2716C1055.47 43.9253 1052.08 44.3175 1048.7 43.9253C1045.88 43.4023 1043.9 43.5331 1041.65 44.056C1041.08 44.1868 1040.24 44.1868 1039.39 44.3175C1037.98 44.4483 1036.29 44.1868 1036.57 43.9253C1036.57 43.7945 1036.85 43.6638 1036.85 43.6638C1037.7 42.7486 1036.28 42.3564 1032.05 42.4871C1026.13 42.7486 1019.92 42.6179 1014 42.7486C1010.62 42.7486 1006.95 43.0101 1004.13 43.2716C1000.46 43.6638 996.234 43.7945 992.568 44.056C991.722 44.1868 990.876 44.1868 990.029 44.1868C987.773 44.1868 985.798 44.056 985.232 43.5331C984.95 43.4023 984.949 43.1409 984.667 42.8794C984.1 42.0949 984.1 42.0949 980.433 41.8334C979.869 41.8334 979.21 41.8334 978.458 41.8334C976.765 41.6591 975.824 41.3977 975.635 41.049C975.635 40.9183 975.352 40.6568 975.352 40.526C974.221 39.5673 971.588 39.3058 967.452 39.7416C965.196 40.1339 962.658 40.2646 959.837 40.2646C957.581 40.2646 955.324 40.2646 953.351 40.526C951.095 40.7875 949.684 40.6568 947.709 40.3953C946.016 40.1339 944.042 40.2646 943.479 40.6568C942.915 40.9183 943.198 41.1798 942.917 41.4412C942.354 41.9642 940.098 42.095 938.686 41.7027C936.711 41.3105 935.017 40.7875 932.196 40.526C930.503 40.3953 930.22 40.1339 931.065 39.7416C931.629 39.4802 932.192 39.0879 933.319 38.8264C935.01 38.3035 937.266 37.9113 937.546 37.1269C937.545 36.9961 939.52 36.9961 939.802 37.1269C940.367 37.3883 940.932 37.5191 940.932 37.6498C941.215 38.042 941.216 38.4342 941.499 38.8264C942.064 39.2187 944.04 39.4801 945.731 39.2187C949.397 38.8264 953.064 38.9572 957.013 38.9572C957.86 38.9572 958.988 38.9572 959.834 38.8264C963.218 38.565 966.602 38.4342 970.269 38.4342C972.244 38.565 973.089 38.1728 971.96 37.7805C970.643 37.4319 969.889 37.0397 969.7 36.6039C969.133 35.5579 966.311 34.9042 961.797 34.6428C961.045 34.6428 960.386 34.5992 959.822 34.5121C959.258 34.5121 958.694 34.3813 958.975 34.2506C958.975 34.1198 959.257 33.9891 959.821 33.9891C963.769 33.5969 965.743 33.7276 968.848 34.5121C969.977 34.7735 971.106 34.9043 972.798 34.7735C974.302 34.5992 975.9 34.5556 977.593 34.6428C978.439 34.6428 979.567 34.5121 979.849 34.3813C980.975 33.5969 984.078 33.5969 986.898 33.5969C991.411 33.4225 995.924 33.2918 1000.44 33.2047C1008.15 33.1175 1015.86 33.0303 1023.57 32.9432L1033.72 32.6817C1038.8 32.6817 1044.16 32.5509 1049.23 32.6817C1052.34 32.6817 1055.72 32.6817 1058.82 32.551C1069.73 32.3766 1080.54 32.2459 1091.26 32.1587C1094.64 32.1587 1097.75 32.1587 1100.85 31.8973C1101.41 31.8973 1102.26 31.8973 1102.82 31.8973C1110.72 32.2895 1118.62 31.7665 1126.52 32.1587C1129.06 32.2895 1131.88 32.1587 1134.7 32.1587C1136.67 32.1587 1137.8 31.8972 1138.36 31.505C1140.62 30.1976 1142.87 29.9362 1149.64 30.1976C1150.96 30.1976 1152.37 30.1976 1153.87 30.1976H1180.95C1182.93 30.1976 1185.18 30.1977 1186.88 29.9362C1189.41 29.6747 1191.67 29.6747 1193.64 30.0669C1194.77 30.1976 1195.9 30.1976 1197.03 30.0669C1199.57 29.6747 1202.39 29.8054 1205.49 29.8054C1209.72 29.9362 1214.24 30.0669 1218.18 29.6747C1223.26 29.8054 1228.06 29.4132 1233.13 29.5439C1234.54 29.6747 1236.24 29.6747 1237.93 29.6747C1240.75 29.5875 1243.66 29.5875 1246.67 29.6747C1248.08 29.6747 1249.49 29.6747 1250.62 29.6747C1255.13 29.5439 1259.37 29.5439 1263.6 29.8054C1265.48 29.8926 1267.45 29.8926 1269.52 29.8054C1273.47 29.6747 1277.42 29.5439 1280.8 30.0669C1281.37 30.1976 1282.5 30.1976 1283.06 30.0669C1286.73 29.2824 1290.39 29.2825 1294.34 29.8054C1295.19 29.9362 1296.32 29.9362 1297.45 29.8054C1299.42 29.4132 1301.96 29.4132 1304.5 29.2825C1309.01 29.2825 1313.52 29.1517 1318.03 29.1517C1320.86 29.1517 1323.11 29.2824 1325.93 29.4132C1328.75 29.4132 1330.73 28.8902 1333.83 29.021C1334.96 29.021 1336.37 29.021 1337.5 29.1517C1338.91 29.4132 1339.76 29.6747 1339.76 29.9362C1339.48 30.3284 1338.35 30.4591 1336.94 30.5899C1332.42 30.7206 1328.2 31.3743 1323.4 31.3743C1321.71 31.3743 1320.86 31.6358 1320.86 31.8973C1320.58 32.028 1320.86 32.1587 1320.86 32.2895C1320.58 33.0739 1319.46 33.2046 1316.35 33.3354C1313.35 33.5097 1310.43 33.6405 1307.61 33.7276C1306.2 33.7276 1304.79 33.7276 1303.66 33.8584C1298.3 34.5121 1292.1 34.3813 1286.46 34.6428C1286.18 34.6428 1285.89 34.6428 1284.48 34.6428ZM1092.4 37.3883C1090.99 37.3883 1089.58 37.5191 1088.74 37.7805C1087.23 38.2163 1085.73 38.6957 1084.23 39.2187C1083.66 39.3494 1083.95 39.6109 1084.51 39.7416C1085.26 40.0031 1086.11 40.221 1087.05 40.3953C1088.18 40.6568 1089.87 40.6568 1091.28 40.526C1092.97 40.3953 1094.1 40.1338 1093.82 39.8723C1093.25 39.3494 1093.53 38.9572 1094.66 38.565C1095.23 38.3035 1095.22 38.042 1095.22 37.7805C1094.94 37.5191 1093.53 37.3883 1092.4 37.3883ZM985.505 40.1338C986.634 40.1338 986.916 40.1338 987.48 40.1338C991.147 40.1338 992.274 39.8723 993.119 39.2187C993.494 38.7829 993.775 38.3906 993.962 38.042C993.962 37.9113 993.679 37.6498 993.115 37.6498C992.55 37.5191 991.422 37.5191 990.858 37.6498C990.012 37.7805 988.602 37.9113 988.32 38.042C987.476 38.6957 985.503 39.0879 982.683 39.4801C981.837 39.6109 982.402 40.0031 983.531 40.0031C984.377 40.1338 985.223 40.1338 985.505 40.1338ZM1140.07 38.1728C1140.07 37.9113 1140.35 37.519 1138.38 37.3883C1137.25 37.3011 1136.12 37.519 1135 38.042C1134.15 38.3035 1133.59 38.6957 1133.02 38.9572C1132.65 39.1315 1132.46 39.3058 1132.46 39.4801C1132.46 39.7416 1133.31 40.0031 1134.72 40.1338C1136.13 40.1338 1137.54 40.1338 1138.39 39.8723C1139.79 39.3494 1140.08 38.8264 1140.07 38.1728ZM1039.38 39.0879C1039.38 38.9572 1037.97 38.8265 1037.12 38.9572C1035.15 39.0879 1033.46 39.4802 1030.63 39.6109C1029.51 39.6109 1028.94 39.8724 1029.23 40.1338C1029.51 40.3953 1030.64 40.526 1031.77 40.526C1035.43 40.526 1038.25 40.1338 1039.38 39.4801C1039.38 39.3494 1039.38 39.2187 1039.38 39.0879ZM1130.48 38.3035C1130.2 37.9113 1129.64 37.7805 1128.51 37.6498C1127.38 37.6498 1126.25 37.7805 1126.25 37.9113C1125.97 38.565 1124 38.9572 1123.15 39.4801C1122.87 39.6109 1122.87 39.8724 1123.72 40.0031C1124.57 40.1338 1125.41 40.0031 1125.97 39.8723C1127.29 39.5237 1128.51 39.1315 1129.64 38.6957C1130.2 38.565 1130.2 38.3035 1130.48 38.3035ZM1020.76 40.1338C1020.01 40.221 1019.35 40.2646 1018.79 40.2646C1016.82 40.3953 1015.69 40.6568 1016.25 40.9183C1017.1 41.1798 1018.51 41.1797 1019.92 41.1797C1021.05 41.049 1022.18 40.9183 1023.02 40.6568C1023.3 40.5261 1023.3 40.3953 1022.46 40.3953C1022.17 40.2646 1021.33 40.2646 1020.76 40.1338ZM1001.01 37.7805C1001.29 37.7805 1002.14 37.7805 1002.7 37.6498C1003.46 37.4755 1004.02 37.3012 1004.4 37.1269C1004.96 36.8654 1004.96 36.6039 1004.11 36.4732C1003.27 36.3424 1001.86 36.4731 1001.29 36.7346C1000.73 36.9089 1000.16 37.1268 999.601 37.3883C999.602 37.519 999.884 37.6498 1001.01 37.7805ZM1142.04 34.9043C1142.6 34.7735 1141.76 34.3813 1140.91 34.3813C1140.63 34.3813 1140.06 34.3813 1139.78 34.5121C1139.22 34.6428 1139.78 34.9043 1140.91 35.035C1141.19 35.035 1141.76 34.9043 1142.04 34.9043ZM1283.07 32.4202C1283.44 32.3331 1283.72 32.2895 1283.91 32.2895C1283.91 32.2895 1283.91 32.1587 1283.63 32.1587C1283.44 32.1587 1283.16 32.1587 1282.78 32.1587L1283.07 32.4202Z" fill="#B9272D"/>
<path fill-rule="evenodd" clip-rule="evenodd" d="M590.357 51.1161C584.151 51.1161 578.227 50.9854 572.303 50.7239C570.329 50.7239 568.354 50.7239 566.38 50.7239C563.277 50.7239 559.892 50.7239 556.789 50.5932C555.943 50.5932 554.815 50.5931 554.25 50.4624C546.067 49.4165 536.759 49.4165 528.014 49.0243C523.5 48.7628 519.268 48.3706 514.754 48.1091C507.137 47.7169 500.366 46.9325 493.594 46.148C490.208 45.7558 486.541 45.4943 482.873 45.1021C477.794 44.5791 472.434 44.1869 467.355 43.5332C463.687 43.141 460.582 42.4873 461.708 41.4414C461.989 41.0492 460.859 40.5262 460.294 40.134C459.729 39.7418 460.01 39.4803 461.702 39.3495C464.24 38.9573 466.778 38.6959 469.881 38.8266C472.701 38.8266 475.24 38.6958 477.778 38.5651C482.008 38.3036 486.521 38.0422 491.035 38.4344C492.445 38.5651 493.856 38.5651 495.266 38.5651C501.472 38.5651 507.114 39.0881 512.757 39.611C515.579 39.8725 518.117 39.8725 520.937 39.7418C526.86 39.4803 533.066 39.611 538.99 39.611C548.392 39.5239 557.7 39.4803 566.914 39.4803C578.196 39.3496 589.479 39.4803 600.762 39.3495C607.531 39.2188 614.583 39.4803 621.07 38.9573C621.257 38.8702 621.445 38.8266 621.633 38.8266C623.89 38.8266 626.428 38.5651 627.558 39.0881C628.687 39.611 626.149 39.8725 624.74 40.134C621.356 40.6569 616.844 40.7877 612.612 40.5262C610.355 40.5262 608.098 40.3955 605.842 40.3955C604.526 40.3955 603.962 40.5698 604.151 40.9184C604.717 41.8336 606.129 42.2258 610.641 41.9643C616 41.8336 621.359 41.7029 626.718 41.7029C634.898 41.5721 642.795 41.1799 650.975 41.3106C653.514 41.3106 656.052 41.3107 658.31 41.5721C661.131 41.9644 663.952 41.9643 666.772 41.8336C668.089 41.7464 669.405 41.6593 670.721 41.5721C673.259 41.5721 674.952 41.5721 674.952 41.8336C675.236 42.2258 673.825 42.2258 672.697 42.3566C671.006 42.6181 670.16 43.0103 670.162 43.5332C670.445 44.0562 669.036 44.4484 667.627 44.8406C666.499 45.2328 665.372 45.4943 664.527 45.8865C663.117 46.2787 661.425 46.2787 660.296 45.8865C660.013 45.7558 660.013 45.6251 659.731 45.4943C659.165 45.1021 657.755 44.9714 656.344 44.9714C654.652 45.0585 652.866 45.1457 650.986 45.2328C649.857 45.2328 648.73 45.4943 649.012 45.6251C649.014 46.2788 647.887 46.671 645.913 47.0632C645.349 47.1503 644.786 47.2811 644.222 47.4554C643.377 47.7169 643.942 48.1091 645.071 48.3706C645.635 48.3706 645.917 48.3706 646.199 48.5013C647.328 48.7628 650.149 48.6321 649.304 49.155C648.74 49.4165 646.483 49.2858 645.073 49.2858C643.099 49.2858 641.407 49.4165 639.997 49.678C639.151 49.9394 637.741 49.9395 636.613 50.0702C632.101 50.5932 627.307 50.8546 621.666 50.8546C614.896 50.8546 607.845 51.1161 600.794 51.2469C597.127 51.3776 593.742 51.2468 590.357 51.1161ZM666.494 43.141C666.493 42.8795 666.211 42.7488 665.082 42.7488C663.672 42.7488 662.262 42.8795 662.263 43.141C662.075 43.3153 662.546 43.4461 663.674 43.5332C665.085 43.5332 666.213 43.4025 666.494 43.141ZM636.312 43.0103C637.441 43.0103 638.286 42.8795 638.004 42.7488C637.721 42.618 637.439 42.618 636.875 42.618C636.029 42.4873 634.901 42.7488 635.184 42.8795C635.466 42.8795 636.03 43.0103 636.312 43.0103Z" fill="#B9272D"/>
<path fill-rule="evenodd" clip-rule="evenodd" d="M776.504 44.1866C775.093 44.1866 773.965 44.1866 772.837 44.3173C770.393 44.4045 768.23 44.3173 766.349 44.0558C762.962 43.5329 759.86 43.6636 757.04 44.0558C756.477 44.1866 755.63 44.1866 755.349 44.3173C753.094 44.971 750.838 45.1017 747.452 44.5788C744.912 44.1866 743.22 44.3173 741.247 44.8403C740.119 45.2325 738.71 45.6247 737.865 46.0169C737.02 46.5399 735.611 46.8013 733.354 46.6706C727.712 46.6706 722.919 47.1936 718.124 47.5858C715.305 47.8473 712.202 47.978 709.1 48.1088C707.408 48.2395 705.997 47.978 705.714 47.7165C705.431 47.455 705.995 47.3243 706.841 47.1936C707.968 46.8013 709.942 46.8013 711.352 46.5399C711.916 46.5399 712.198 46.4091 712.198 46.2784C712.197 46.0169 711.632 45.8862 710.786 45.7554C708.811 45.6247 707.119 45.8862 705.427 45.8862C704.58 45.7554 704.016 45.7554 703.734 45.6247C703.451 45.494 703.733 45.3632 704.015 45.2325C705.142 44.971 706.27 44.5788 707.961 44.3173C710.217 44.1866 711.627 43.7943 712.19 43.4021C712.753 43.0099 714.445 42.7484 716.419 42.7484C718.394 42.7484 720.368 42.7484 722.343 42.7484C728.266 42.7484 734.19 42.8792 740.113 42.6177C741.523 42.4869 743.215 42.6177 744.908 42.6177C751.677 42.6177 758.729 42.4869 765.781 42.7484C768.602 42.8792 771.705 42.7484 774.242 42.4869C777.908 41.964 781.575 41.964 785.242 42.2255C786.935 42.3562 789.473 42.2255 789.757 42.7484C790.04 43.1406 788.066 43.4021 786.656 43.5329C786.28 43.62 785.904 43.6636 785.528 43.6636C782.709 44.0558 779.889 44.5788 776.504 44.1866ZM723.762 46.1477C725.172 46.1477 726.3 46.0169 727.428 45.8862C728.274 45.7554 728.555 45.494 727.991 45.3632C727.144 45.1017 726.298 45.1017 725.452 45.2325C724.512 45.3196 723.572 45.4939 722.633 45.7554C722.351 45.7554 722.351 45.8862 722.633 46.0169C722.915 46.0169 723.48 46.0169 723.762 46.1477Z" fill="#B9272D"/>
<path d="M693.299 46.2785C692.452 46.017 692.169 45.7555 691.04 45.494C689.065 45.2325 686.244 45.1018 684.271 45.494C683.707 45.6247 683.143 45.7555 682.579 45.8862C678.915 46.6706 674.965 46.4092 672.706 45.494C671.859 45.1018 672.703 44.5788 674.396 44.4481C675.805 44.1866 677.779 44.0559 679.472 44.0559C684.548 43.7944 685.394 43.6636 685.955 42.6177C686.798 41.3103 689.336 40.9181 695.824 41.0489C697.798 41.0489 699.773 41.0489 701.746 40.7874C705.413 40.5259 709.361 40.3952 713.592 40.3952C717.541 40.3952 721.771 40.1337 725.72 40.1337C728.823 40.0029 731.926 40.0029 736.439 40.0029C729.954 41.0488 723.749 41.3103 717.261 41.1796C711.619 40.9181 707.953 41.3103 704.57 41.964L703.443 42.2255C700.905 42.7485 700.905 42.7485 703.728 43.4022C704.575 43.7944 704.576 44.0559 703.166 44.1866C702.414 44.2738 701.568 44.3174 700.628 44.3174C698.09 44.5788 696.962 44.8403 697.245 45.3633C697.529 46.017 695.555 46.1477 693.017 46.2785H693.299Z" fill="#B9272D"/>
<path d="M893.262 37.3882C895.706 37.4753 898.151 37.5625 900.596 37.6497C901.442 37.6497 902.289 37.7804 902.853 37.9111C903.136 38.1726 902.29 38.3034 901.727 38.5648C900.317 38.8263 898.343 38.9571 896.369 39.0878C894.113 39.2621 891.951 39.3929 889.882 39.48C886.498 39.7415 886.217 40.003 886.783 40.7874C886.784 41.1796 886.503 41.3104 884.528 41.3104C882.271 41.1796 880.297 41.3104 878.041 41.4411C874.092 41.7026 869.862 41.9641 865.631 41.9641C862.246 41.8333 859.143 41.8334 856.606 42.3563C856.418 42.3563 856.23 42.3563 856.042 42.3563C854.632 42.487 853.504 42.487 853.221 42.2256C852.656 41.9641 853.502 41.7026 854.348 41.7026C858.296 41.4411 862.244 41.2232 866.193 41.0489C867.321 41.0489 868.449 41.0489 869.578 41.0489C872.398 40.9182 872.961 40.6567 872.678 40.003C872.676 39.3493 872.958 39.2186 876.06 38.9571C878.598 38.8263 880.854 38.5648 881.981 38.0419C882.262 37.7804 883.672 37.6497 885.082 37.5189C887.903 37.5189 890.629 37.4753 893.262 37.3882Z" fill="#B9272D"/>
<path d="M811.473 41.5722C811.476 42.7488 809.503 43.2718 803.863 43.664C802.734 43.664 801.324 43.5332 801.041 43.2718C800.758 43.0103 801.039 42.618 802.167 42.4873C805.833 42.0951 807.806 41.4414 808.086 40.657C808.085 40.5262 808.932 40.5262 809.495 40.3955C810.624 40.3955 811.188 40.5262 811.471 40.7877C811.659 40.8749 811.753 40.962 811.754 41.0492C811.754 41.2235 811.661 41.3978 811.473 41.5722Z" fill="#B9272D"/>
<path d="M958.994 41.1797C960.686 41.1797 961.815 41.4412 962.098 41.7027C962.1 42.3564 963.793 42.6178 966.613 42.6178C968.024 42.6178 969.153 42.8793 969.154 43.1408C969.437 43.533 968.309 43.7945 966.617 43.7945C964.36 43.9252 962.386 43.9252 960.975 43.533C958.905 43.0101 957.493 42.4435 956.739 41.8334C956.456 41.5719 957.584 41.3104 958.994 41.1797Z" fill="#B9272D"/>
<path d="M862.813 43.0102C867.326 43.0102 871.557 43.0102 875.226 43.5332C875.79 43.5332 876.072 43.6639 875.791 43.7946C875.791 43.9254 874.945 43.9254 874.663 43.9254C870.149 43.5332 865.636 43.7947 861.124 44.0561C859.807 44.0561 858.491 44.0997 857.175 44.1869C855.765 44.1869 854.919 44.1869 854.354 43.9254C853.789 43.5332 854.352 43.1409 855.762 43.1409C858.3 42.8795 860.839 43.0102 862.813 43.0102Z" fill="#B9272D"/>
<path d="M843.915 43.1406C846.454 43.2714 848.428 43.1407 848.994 43.6636C849.559 44.0558 848.149 44.3173 845.329 44.448C843.637 44.5788 841.944 44.5788 839.97 44.448C838.841 44.3609 838.276 44.1865 838.276 43.9251C838.275 43.6636 838.838 43.4021 839.966 43.2714C841.377 43.2714 843.069 43.2714 843.915 43.1406Z" fill="#B9272D"/>
<path d="M921.756 39.3495C921.476 40.1339 919.22 40.5261 915.836 40.6569C914.708 40.6569 913.579 40.6569 913.014 40.3954C912.45 40.1339 913.013 40.0032 913.859 39.8724C915.551 39.6109 916.396 39.2187 917.242 38.9573C917.617 38.6958 918.275 38.6086 919.215 38.6958C920.344 38.6958 921.002 38.7829 921.191 38.9573C921.473 39.088 921.755 39.2187 921.756 39.3495Z" fill="#B9272D"/>
<path d="M693.299 46.2788C694.052 46.4531 694.898 46.671 695.839 46.9325C696.686 47.0632 698.097 47.3247 697.533 47.5862C696.688 47.9784 694.714 48.1092 692.74 48.1092C691.048 48.2399 689.072 47.9784 688.225 47.5862C687.661 47.4555 688.224 47.194 688.788 47.0632C690.197 46.671 692.454 46.671 693.299 46.2788Z" fill="#B9272D"/>
<path d="M945.999 33.8584C946.563 33.9891 947.128 33.9891 947.692 33.9891C948.82 34.1198 949.949 34.2506 949.95 34.5121C949.95 34.7736 949.669 35.0351 948.259 35.1658C947.977 35.2965 946.849 35.2965 946.567 35.1658C945.438 35.0786 944.498 34.9479 943.745 34.7736C942.898 34.6428 942.052 34.5121 942.333 34.2506C942.896 33.8584 944.307 33.8584 945.999 33.8584Z" fill="#B9272D"/>
<path d="M637.147 38.5649H638.557C639.967 38.5649 640.532 38.8264 640.25 38.9572C639.969 39.0879 639.687 39.2186 639.123 39.3494C637.996 39.6109 637.433 40.1338 635.458 40.0031C633.483 39.8723 633.764 39.3494 633.481 38.9572C633.198 38.6957 633.762 38.5649 635.172 38.5649C635.924 38.5649 636.583 38.5649 637.147 38.5649Z" fill="#B9272D"/>
<path d="M832.063 41.0488C832.063 41.0488 832.627 41.1795 832.909 41.3103C833.757 41.8332 832.066 42.2255 829.527 42.2255C828.963 42.2255 828.399 42.0947 828.116 41.964C827.269 41.7025 827.833 41.5718 828.678 41.3103C829.242 41.1795 830.088 41.0488 832.063 41.0488Z" fill="#B9272D"/>
<path d="M951.948 43.4023C951.667 43.7946 950.257 44.056 948.565 43.9253C947.154 43.9253 945.743 43.5331 946.306 43.2716C946.588 43.0101 947.716 42.8794 949.408 42.8794C950.818 42.8794 951.947 43.1409 951.948 43.4023Z" fill="#B9272D"/>
<path d="M909.636 42.6177C909.354 42.7484 909.354 42.8792 909.073 43.0099C908.791 43.2714 907.663 43.2714 906.535 43.2714C905.124 43.1406 904.841 43.0099 904.559 42.7484C904.558 42.4869 905.122 42.3562 905.686 42.2255C906.531 42.0947 907.096 42.0947 908.224 42.0947C909.07 42.2255 909.353 42.3562 909.636 42.6177Z" fill="#B9272D"/>
<path d="M957.854 36.8652C958.418 36.8652 959.265 36.996 960.111 37.1267C960.393 37.1267 960.676 37.2574 960.394 37.2574C960.112 37.3882 959.83 37.5189 959.266 37.6497C958.702 37.6497 958.138 37.6497 957.292 37.6497C956.445 37.5189 955.035 37.5189 955.034 37.2574C955.315 36.8652 956.444 36.8652 957.854 36.8652Z" fill="#B9272D"/>
<path d="M976.487 43.0103C977.615 43.0103 978.744 43.141 978.744 43.4025C978.557 43.5768 977.993 43.7075 977.053 43.7947C976.207 43.7947 974.796 43.6639 974.795 43.4025C974.513 43.2717 975.359 43.0103 976.487 43.0103Z" fill="#B9272D"/>
<path d="M897.219 40.3955C897.783 40.3955 898.629 40.5264 899.476 40.5264C899.758 40.6573 899.758 40.7883 899.758 40.7883C899.195 41.0501 898.067 41.0502 896.938 41.0502C896.092 41.0502 894.963 40.9192 894.963 40.6573C894.962 40.5264 896.09 40.3955 897.219 40.3955Z" fill="#B9272D"/>
<path d="M1025.57 44.4485C1025.29 44.7099 1024.73 44.8407 1023.88 44.8407C1022.75 44.8407 1021.9 44.5792 1022.19 44.3178C1022.37 44.1434 1022.84 44.0563 1023.6 44.0563C1024.44 43.9255 1025.57 44.187 1025.57 44.4485Z" fill="#B9272D"/>
<path d="M930.79 42.2256C931.354 42.3563 931.918 42.3563 931.919 42.487C932.483 42.6178 931.356 43.01 929.946 43.01C929.664 43.01 929.099 42.8793 928.817 42.8793C928.252 42.6178 929.38 42.3563 930.79 42.2256Z" fill="#B9272D"/>
<path d="M936.411 34.6433C936.129 34.7742 935.847 34.9051 935.847 34.9051C934.531 34.9051 933.685 34.7742 933.308 34.5124C933.026 34.5124 933.307 34.2505 933.589 34.2505C934.999 34.2505 936.41 34.3814 936.411 34.6433Z" fill="#B9272D"/>
<path d="M740.673 41.18C740.109 41.18 739.921 41.1364 740.108 41.0491C740.108 40.8745 740.39 40.8309 740.954 40.9182C741.142 40.9182 741.236 40.9618 741.237 41.0491C741.425 41.1364 741.237 41.18 740.673 41.18Z" fill="#B9272D"/>
<path d="M904.553 40.5273L903.988 40.3955H904.552L904.553 40.5273Z" fill="#B9272D"/>
<path d="M942.902 35.8208H942.337L942.619 35.689L942.902 35.8208Z" fill="#B9272D"/>
<path d="M841.655 41.7026L841.937 41.8344H841.373L841.655 41.7026Z" fill="#B9272D"/>
</g>
<g clip-path="url(#clip1_240_8)">
<path fill-rule="evenodd" clip-rule="evenodd" d="M728.733 22.6369C730.499 22.2572 730.498 21.6878 731.086 21.3081C731.968 20.7386 730.199 20.3589 727.254 20.3589C725.88 20.4855 724.505 20.612 723.131 20.7386C716.358 21.3081 709.584 21.8776 702.22 21.8776C699.274 21.8776 696.329 21.8776 693.383 21.8776C688.376 22.0674 683.368 22.0674 679.537 21.1183C678.063 20.7386 675.706 20.7386 673.645 20.9284C672.761 20.9284 671.878 21.1183 671.289 21.1183C663.339 22.4471 653.913 22.2572 644.782 22.6369C643.898 22.6369 643.015 22.6369 642.131 22.4471C640.952 22.4471 640.068 22.2572 640.067 21.8776C640.067 21.6878 640.361 21.4979 640.655 21.3081C641.83 20.1691 640.651 19.9793 636.233 20.1691C629.754 20.7386 623.275 21.1183 616.501 21.4979C612.084 21.8776 607.37 21.8776 602.658 22.2572C600.007 22.2572 597.357 22.4471 595.001 22.6369C590.879 23.2064 586.755 23.3962 582.337 23.3962C579.587 23.3962 577.133 23.6493 574.975 24.1556C571.147 24.9149 566.141 25.4844 560.839 25.4844C553.182 25.864 545.524 26.2437 537.865 26.2437C533.153 26.4335 528.44 26.4335 523.728 26.8132C520.783 27.003 518.72 26.6234 518.128 25.864C517.833 25.4844 517.832 25.1047 517.537 24.9149C516.356 23.9657 512.526 23.7759 509.582 24.3454C508.404 24.5352 507.227 24.9149 506.344 25.1047C505.167 25.4844 504.284 25.864 502.517 26.0539C501.045 26.2437 499.278 26.4335 497.51 26.2437C495.742 25.864 496.33 25.4844 496.918 25.1047C497.506 24.7251 498.683 24.1556 498.976 23.7759C499.564 23.3962 498.68 23.2064 497.207 23.0166C495.733 22.6369 493.672 22.8267 492.494 23.0166C491.022 23.3962 490.729 23.9657 490.141 24.3454C488.966 25.4844 488.376 25.4844 483.368 25.2945C482.19 25.168 481.011 25.0414 479.833 24.9149C478.065 24.9149 476.297 24.7251 474.825 24.9149C470.408 25.4844 465.4 25.2946 461.278 25.864C460.1 26.0539 458.333 26.0539 457.153 25.6742C456.269 25.4844 456.268 24.9149 457.74 24.7251C459.8 24.1556 462.451 23.9657 465.396 23.7759C469.224 23.3962 470.106 22.8267 468.337 22.0674C467.551 21.6878 466.274 21.4979 464.506 21.4979C458.026 21.4979 451.841 21.8776 445.951 22.4471C444.577 22.7002 443.793 23.0166 443.597 23.3962C443.597 23.3962 443.892 23.5861 443.598 23.7759C442.718 24.9149 439.773 25.2946 435.059 24.9149C431.524 24.7251 428.577 24.3454 425.336 23.9657C422.684 23.5861 421.801 23.7759 420.034 24.1556C419.446 24.3454 419.151 24.5352 418.563 24.7251C417.386 25.1047 415.619 25.2945 413.262 25.2945C409.727 25.168 406.192 25.0414 402.657 24.9149C398.828 24.9149 396.176 24.5352 394.406 23.5861C392.341 22.6369 392.046 22.4471 387.04 22.8267C384.094 23.0166 381.737 22.8267 379.674 22.2572C376.727 21.6245 373.191 21.3714 369.068 21.4979C364.061 21.8776 360.229 20.9284 355.221 20.7386C359.048 19.7894 360.226 19.5996 364.939 19.5996C368.473 19.4098 372.008 19.5996 375.542 19.4098C376.131 19.2199 377.014 19.0301 377.014 19.0301C377.014 18.8403 376.424 18.4606 375.834 18.4606C372.888 18.081 369.647 17.8911 366.407 17.8911C358.749 18.0177 351.09 18.2075 343.432 18.4606C340.487 18.4606 340.193 18.8403 341.373 19.4098C341.963 19.5996 342.552 19.7894 342.847 19.9793C343.437 20.1691 343.437 20.3589 342.554 20.5488C341.965 20.5488 340.787 20.5488 340.198 20.5488C338.43 20.4222 336.859 20.2324 335.483 19.9793C333.421 19.7894 331.652 19.4098 329.589 19.0301C325.464 18.4606 321.34 18.2708 316.628 18.6504C314.566 18.8403 311.915 18.8403 309.853 18.8403C301.31 18.4606 293.357 18.6504 285.11 19.0301C282.459 19.0301 279.808 19.0301 277.157 18.8403C274.8 18.6505 272.737 18.4606 270.38 18.081C267.728 17.8911 264.195 18.6505 262.131 17.8911C260.363 17.5115 260.361 16.7521 258.887 16.3725C258.002 15.803 255.645 15.6131 253.583 15.803C245.926 16.1826 238.266 15.803 230.607 15.803C227.956 15.6131 225.894 15.803 223.538 15.9928C215.882 16.7521 207.634 16.7521 199.091 16.3725C194.966 16.1826 190.548 16.1826 186.13 16.5623C181.713 16.942 177 17.1318 172.58 16.3725C170.222 15.9928 167.866 16.1826 165.51 16.3725C159.032 17.1318 151.667 16.7521 144.893 17.1318C143.715 17.1318 142.536 16.942 142.535 16.5623C142.534 16.3725 143.123 15.9928 143.122 15.6131C143.415 15.2335 141.058 15.0437 140.175 15.2335C135.465 16.3725 129.279 16.1826 123.093 16.1826C122.209 16.1826 121.325 16.1826 120.442 16.1826C110.428 16.7521 99.8218 15.9928 89.5125 16.1826C85.9778 16.1826 82.4425 15.9928 79.2013 15.6131C70.3613 14.4742 61.2298 14.4742 52.0984 14.4742C46.7966 14.6007 41.4948 14.7273 36.193 14.8538C30.8908 14.8538 25.5887 14.8538 20.5821 15.2335C18.8152 15.4233 16.4587 15.4233 14.3963 15.2335C12.0398 15.2335 10.2719 15.0437 9.38664 14.4742C5.25819 12.7657 1.42432 11.0572 0.240991 9.15888C-0.646252 7.83006 1.11958 7.26056 6.42071 6.8809C8.77671 6.69107 11.1332 6.69107 13.1952 6.69107C26.155 6.31141 38.5241 5.36225 50.3036 4.22326C54.721 3.8436 58.8439 3.46394 63.5569 3.46394C64.146 3.46394 65.0302 3.65377 65.3243 3.46394C70.3293 2.51478 76.8107 2.89444 82.7015 2.70461C84.7634 2.70461 87.1194 2.51478 88.5918 2.32495C93.0087 1.75545 97.4272 1.75546 102.435 1.75546C106.559 1.94529 110.388 1.75545 114.511 1.56562C120.696 1.18596 127.176 0.996129 133.656 0.806298C134.441 0.806298 135.325 0.806298 136.307 0.806298C142.199 0.996129 143.671 0.806297 149.561 0.426634C153.684 0.0469708 158.004 -0.0795849 162.521 0.0469694L179.312 0.426634C182.651 0.553188 185.892 0.679744 189.034 0.806298C193.159 1.18596 197.283 1.18596 201.407 1.18596C208.771 1.18596 216.135 1.18596 223.501 1.94528C225.269 2.13511 226.742 2.13511 228.508 1.94528C237.05 1.75545 245.004 1.94528 252.96 2.89444C255.906 3.2741 259.148 3.65377 262.976 3.2741C264.449 3.2741 266.511 3.46394 268.279 3.46394C270.046 3.46394 272.108 3.65377 273.581 3.46394C277.409 2.89444 281.534 3.2741 285.657 3.08427C289.486 3.08427 292.726 3.08427 294.791 4.03343C295.38 4.22326 296.854 4.41309 298.032 4.22326C301.566 4.03343 303.334 4.41309 305.103 4.98259C307.462 5.74191 308.64 5.74191 311.879 5.36225C312.075 5.2357 312.271 5.17242 312.468 5.17242C314.529 4.98259 316 4.41309 318.357 4.41309C321.598 4.60293 320.716 5.36225 321.601 5.74191C322.485 6.12157 324.253 6.31141 326.02 6.12158C326.903 5.93174 327.493 5.93174 328.376 5.74191C337.21 4.60292 346.636 4.60293 356.359 5.55208C357.243 5.74191 358.422 5.93174 359.6 5.93174C364.312 5.74191 368.437 6.12158 372.562 6.50124C374.33 6.69107 376.392 6.69107 378.454 6.69107C380.81 6.56451 383.167 6.50124 385.523 6.50124C388.469 6.69107 391.415 6.69107 393.184 7.4504C394.659 8.01989 396.721 8.20972 399.078 8.20972C404.38 8.39955 409.683 8.77922 414.986 8.77922C418.815 8.77922 422.055 8.77922 424.705 8.20972C426.176 7.83006 428.533 7.83006 430.595 8.01989C433.837 8.58939 437.372 8.58939 440.611 8.20972C444.439 7.83006 448.27 8.20972 452.1 8.39956C456.519 8.77922 458.583 9.72837 457.113 10.6775C456.231 11.4369 456.528 12.0064 457.413 12.7657C458.299 13.3352 459.479 14.0945 459.775 14.8538C459.778 15.9928 464.788 16.5623 469.205 16.1826C471.855 15.803 474.21 15.4233 477.452 15.803C478.63 15.9928 479.514 15.803 480.691 15.6131C484.617 14.9804 488.445 14.2843 492.174 13.525C493.941 13.3352 493.645 12.7657 491.877 12.5758C488.93 12.0064 485.689 11.8165 481.86 11.8165C480.387 12.0064 478.914 12.0064 477.442 12.0064C473.612 12.0064 470.668 12.386 468.608 13.1453C467.136 13.525 464.19 13.3352 463.6 12.9555C463.206 12.7024 462.911 12.4493 462.714 12.1962C460.941 10.108 461.824 9.9182 471.544 9.53854C477.14 9.53854 482.442 9.15888 488.333 9.34871C489.512 9.53854 491.279 9.34871 492.457 9.15888C497.757 8.39955 503.943 8.58938 509.835 8.77922C511.897 8.77922 512.487 9.15888 512.194 9.72837C512.195 9.9182 511.9 10.108 511.9 10.108C511.901 10.4877 513.375 10.8674 514.848 10.8674C517.499 10.6775 519.855 10.4877 522.505 10.2979C526.335 10.2979 529.869 10.108 533.699 10.4877C536.646 10.8674 540.18 10.6775 543.42 10.4877C546.659 10.108 549.605 10.108 552.846 10.4877C556.676 10.8674 560.8 10.8674 564.923 10.6775C566.69 10.4877 568.458 10.4877 570.226 10.6775C571.698 10.6775 572.583 11.0572 571.995 11.4369C571.112 11.6267 570.229 12.0064 569.641 12.1962C569.346 12.386 569.642 12.5758 570.526 12.7657C571.508 12.8922 572.588 12.9555 573.766 12.9555C577.007 13.1453 578.479 12.7657 578.477 12.0064C578.474 11.0572 578.769 11.0572 581.714 10.8674C584.07 10.6775 586.721 10.4877 589.372 10.6775C594.086 10.8674 598.799 10.8674 603.806 10.8674C607.047 10.8674 609.992 10.6775 612.936 10.2979C618.531 9.72838 624.128 9.53854 630.02 10.108C634.145 10.4877 638.564 10.4877 643.277 10.4877C648.873 10.2979 654.174 9.91821 659.771 9.91821C670.669 9.72837 681.272 9.15888 692.465 9.15888C700.713 9.15888 708.96 8.96905 717.502 8.77922C722.804 8.58938 728.106 8.58938 733.408 8.58938C734.881 8.58938 736.354 8.58939 737.826 8.39956C741.066 8.39956 744.895 8.20972 748.135 8.20972C751.376 8.39955 754.027 8.39955 756.677 8.01989C759.033 7.83006 760.801 8.01989 761.98 8.39956C763.16 8.77922 762.866 9.15888 761.689 9.53854C759.923 10.108 757.568 10.4877 754.032 10.2979C753.443 10.2979 752.854 10.2979 752.265 10.2979C749.123 10.1713 747.257 10.3611 746.67 10.8674C746.082 11.4369 747.851 12.1962 750.503 12.386C753.744 12.5758 756.984 12.5758 759.929 12.1962C762.873 11.8165 765.818 11.6267 768.468 11.0572C770.234 10.6775 772.001 10.2979 773.767 9.91821C777.3 9.34871 777.595 9.34871 780.837 10.108C782.31 10.2979 783.489 10.4877 785.551 10.4877C786.729 10.4877 787.908 10.4877 788.791 10.4877C790.559 10.6775 791.738 11.0572 793.8 11.0572C796.451 10.8674 798.512 10.4877 800.278 9.91821C800.866 9.72837 801.454 9.34871 802.337 8.96905C804.103 8.39955 807.048 8.20972 809.995 8.58938C810.289 8.58938 810.584 8.58938 810.584 8.58938C815.595 10.108 821.485 9.53854 826.491 8.77922C830.613 8.20972 834.147 7.83006 838.861 8.20972C840.629 8.39955 842.396 8.39955 844.163 8.01989C847.107 7.64023 850.642 7.64023 854.177 7.64023C859.185 7.83006 863.898 7.83006 868.02 7.07073C869.787 6.8809 871.849 6.8809 873.911 6.8809L883.631 6.69107C890.111 6.69107 896.296 6.50124 902.186 5.93174C906.112 5.55208 910.138 5.42553 914.262 5.55208C916.029 5.55208 917.797 5.74191 918.682 6.12158C918.978 6.50124 918.39 6.8809 917.506 7.07073C909.263 8.77922 902.789 11.0572 891.893 12.1962C887.476 12.7657 883.943 13.525 879.526 14.0945C875.993 14.664 873.639 15.4233 873.347 16.5623C872.761 17.7013 870.111 18.081 865.694 18.4606C861.865 18.8403 858.036 19.0301 853.618 18.8403C851.555 18.6505 849.199 18.6505 847.432 18.8403C844.193 19.2199 841.835 19.0301 839.772 18.4606C838.888 18.2708 837.415 18.2708 836.531 18.2708C832.702 18.2708 829.462 18.2708 826.22 17.7013C824.747 17.5115 823.274 17.7013 821.802 17.8911C818.661 18.1442 815.618 18.3973 812.673 18.6504C810.709 18.777 808.942 18.7137 807.37 18.4606C806.191 18.2708 805.307 18.081 805.307 17.8911C805.306 17.5115 806.484 17.5115 807.662 17.3216C808.643 17.3216 809.527 17.3849 810.313 17.5115C816.793 17.5115 818.56 17.1318 819.145 15.803C819.341 15.4233 819.536 14.9804 819.731 14.4742C820.024 13.7148 819.139 13.525 815.605 13.525C810.303 13.7148 805.001 13.7148 800.879 14.664C799.408 15.0437 797.346 15.2335 795.284 15.2335C789.982 15.2335 786.45 16.1826 782.622 16.7521C782.033 16.7521 781.444 16.942 781.739 17.1318C781.74 17.3216 782.624 17.5115 783.508 17.5115C784.392 17.7013 785.865 17.7013 786.749 17.7013C788.516 17.5747 790.283 17.4482 792.05 17.3216C794.406 17.3216 796.763 17.5115 797.059 17.8911C797.944 18.4606 796.767 18.8403 795.295 19.2199C792.645 19.7894 789.7 19.9793 786.461 20.1691C782.533 20.2957 778.704 20.4222 774.974 20.5488C772.617 20.6753 770.556 20.9284 768.79 21.3081C765.552 22.0674 763.492 22.8267 765.262 23.9657C766.147 24.3454 764.675 24.7251 762.614 25.1047C761.141 25.1047 759.668 24.9149 759.667 24.5352C759.666 24.3454 759.961 24.1556 759.96 23.7759C759.367 22.6369 756.126 22.2572 751.414 22.6369C748.469 23.0166 745.818 23.0166 742.872 22.8267C739.042 22.6369 736.392 22.8267 734.332 23.5861C733.155 23.9657 732.272 24.1556 731.094 24.5352C730.211 24.7251 729.033 24.9149 727.855 24.9149C720.195 24.3454 712.537 24.7251 704.879 24.9149C697.515 24.9149 690.151 24.9149 682.787 25.1047L676.308 25.2945C676.013 25.2945 675.423 25.1047 675.128 24.9149C675.128 24.9149 675.422 24.7251 676.011 24.7251C677.483 24.3454 679.544 23.9657 681.607 24.1556C687.794 24.5352 693.094 23.9657 698.69 23.5861C701.929 23.3962 704.579 22.8267 708.115 23.2064C709.294 23.3962 710.176 23.0166 711.059 22.8267C711.943 22.6369 712.826 22.4471 714.298 22.2572C721.071 21.4979 721.366 21.4979 728.733 22.6369ZM660.97 17.7013C660.97 17.8911 660.677 18.2708 660.972 18.6504C662.449 19.9793 663.922 20.1691 669.517 19.5996C673.64 19.2199 675.406 18.6505 677.171 17.8911C678.054 17.5115 676.875 17.1318 675.107 17.1318C674.322 17.1318 673.438 17.1318 672.456 17.1318C668.628 17.3216 668.036 16.5623 669.213 15.9928C671.273 15.0437 673.627 14.2843 678.929 14.2843C681.875 14.2843 683.936 13.9047 685.702 13.3352C688.351 12.7657 689.233 12.0064 687.464 11.6267C685.107 11.247 683.046 11.6267 680.985 11.8165C676.273 12.1962 671.856 12.7657 666.551 12.0064C665.373 11.8165 663.9 11.8165 662.428 12.0064C659.091 12.5126 655.852 13.0188 652.711 13.525C651.239 13.7148 650.65 13.9047 651.24 14.2843C652.027 14.664 652.617 15.0437 653.011 15.4233C653.404 15.803 654.289 16.0561 655.664 16.1826C656.842 16.1826 658.02 16.2459 659.199 16.3725C660.672 16.3725 661.556 16.7521 661.558 17.1318C661.558 17.3216 661.264 17.5115 660.97 17.7013ZM492.487 20.5488C493.076 20.5488 493.371 20.5488 493.665 20.5488C502.502 20.2957 511.24 20.0425 519.88 19.7894C521.647 19.7894 523.119 19.4098 524.591 19.2199C526.652 18.8403 526.355 18.081 523.703 17.7013C520.757 17.3216 517.811 17.1318 515.456 17.8911C512.807 18.4606 508.978 18.6504 505.148 18.6504C501.32 18.8403 498.961 18.2708 496.603 17.7013C495.425 17.5115 493.657 17.5115 492.48 17.7013C490.713 17.8911 488.946 18.2708 487.475 18.6504C484.825 19.2199 486.3 20.1691 490.131 20.5488C491.014 20.5488 491.898 20.5488 492.487 20.5488ZM417.95 15.803C412.648 15.803 408.819 16.1826 404.992 16.7521C403.519 16.942 403.521 17.7013 405.289 17.8911C408.629 18.3973 412.067 18.8403 415.602 19.2199C418.549 19.5996 421.495 19.5996 423.555 19.0301C425.322 18.6504 427.088 18.2708 428.854 17.8911C431.799 17.5115 431.503 16.942 428.556 16.5623C425.02 15.9928 421.191 16.1826 417.95 15.803ZM719.877 15.6131C716.049 16.1826 711.335 15.803 706.917 15.9928C703.187 16.2459 699.456 16.4357 695.725 16.5623C693.958 16.7521 692.486 16.942 691.898 17.3216C691.015 17.7013 691.016 18.081 692.196 18.4606C693.375 18.8403 695.142 18.8403 696.909 18.6504C701.326 18.081 706.039 17.8911 711.046 17.7013C715.17 17.7013 719.292 17.3216 721.942 16.5623C722.236 16.3725 722.235 16.1826 722.235 15.9928C721.94 15.803 720.761 15.803 719.877 15.6131ZM361.386 12.9555C359.619 12.9555 357.851 12.9555 356.673 12.9555C349.9 13.7148 343.126 14.0945 335.762 14.0945C335.173 14.0945 334.29 14.2843 334.29 14.4742C334.291 14.8538 335.47 15.0437 336.648 15.0437C341.361 15.0437 345.976 14.9804 350.492 14.8538C351.671 14.8538 353.143 14.8538 353.732 14.664C356.97 13.9047 360.799 13.7148 365.218 13.9047C366.102 14.0945 366.691 13.9047 366.69 13.525C366.689 13.3352 366.1 13.1453 365.216 13.1453C364.037 12.9555 362.564 12.9555 361.386 12.9555ZM745.807 18.8403C743.451 18.8403 741.095 19.0301 739.033 19.2199C737.561 19.2199 736.678 19.5996 736.384 19.9793C736.091 20.3589 737.27 20.5488 738.743 20.7386C740.511 20.8652 742.376 20.9917 744.341 21.1183C748.17 21.3081 751.116 21.1183 753.765 20.3589C755.531 19.9793 754.94 19.2199 752.583 19.2199C750.521 19.0301 748.164 18.8403 745.807 18.8403ZM534.003 14.0945H551.677C554.819 14.0945 557.568 13.8414 559.923 13.3352C560.217 13.3352 560.512 13.1453 560.512 13.1453C560.217 12.9555 559.921 12.7657 559.332 12.7657C555.6 12.386 551.967 12.4493 548.434 12.9555C544.017 13.525 539.305 13.7148 534.296 13.3352C532.529 13.3352 530.761 13.1453 529.584 13.7148C528.995 13.9047 530.764 14.2843 534.003 14.0945ZM711.914 12.0064C713.092 12.0064 714.271 12.0064 715.449 12.0064C718.984 12.0064 722.223 11.6267 725.462 11.247C725.757 11.247 726.345 11.0572 726.345 11.0572C726.345 10.8674 725.755 10.6775 725.461 10.6775C722.808 10.2979 719.862 10.108 717.212 10.4877C714.563 11.0572 711.618 11.247 708.377 11.247C707.199 11.247 706.021 11.4369 706.022 11.8165C706.318 12.1962 707.791 12.1962 709.263 12.0064C710.245 12.0064 711.129 12.0064 711.914 12.0064ZM463.028 19.5996C466.564 19.7894 468.92 19.5996 470.981 19.2199C472.158 19.0301 472.452 18.8403 471.568 18.4606C470.977 18.081 469.504 17.8911 468.032 18.081C465.381 18.2708 463.025 18.4606 460.079 18.2708C458.901 18.2708 458.018 18.4606 457.724 18.8403C457.431 19.2199 458.315 19.4098 459.788 19.5996C461.261 19.5996 462.734 19.5996 463.028 19.5996ZM432.678 15.6131C432.679 16.1826 434.153 16.5623 435.331 16.3725C437.391 15.803 440.337 15.9928 442.693 15.803C443.871 15.6131 444.754 15.4233 444.459 15.2335C444.458 14.8538 443.574 14.664 442.396 14.664C439.154 14.2843 435.915 14.4742 433.56 15.0437C432.971 15.2335 432.678 15.6131 432.678 15.6131ZM382.885 11.4369C383.474 11.4369 384.358 11.4369 385.242 11.4369C387.009 11.247 387.891 10.8674 387.301 10.4877C386.711 10.108 384.943 9.72837 383.176 9.91821C381.605 10.0448 380.034 10.1713 378.464 10.2979C377.875 10.2979 377.286 10.4877 377.58 10.4877C377.581 10.7408 377.876 10.9306 378.466 11.0572C379.645 11.4369 381.118 11.4369 382.885 11.4369ZM737.838 12.9555C738.722 12.9555 739.606 12.9555 740.195 12.9555C741.373 12.7657 742.551 12.7657 742.55 12.386C742.549 12.1962 741.665 12.0064 740.486 11.8165C739.701 11.8165 738.915 11.8165 738.13 11.8165C735.479 11.8165 733.417 12.0063 733.713 12.386C734.009 12.9555 736.071 12.9555 737.838 12.9555ZM836.507 9.15888C834.15 9.15888 832.384 9.53854 832.68 10.108C832.975 10.2979 833.859 10.4877 835.038 10.4877C837.689 10.4877 839.75 10.108 839.454 9.72837C839.159 9.34871 837.98 9.15888 836.507 9.15888ZM635.036 13.1453C635.626 13.3352 636.215 13.525 636.805 13.525C638.866 13.525 641.221 12.9555 641.515 12.386C641.809 12.386 641.219 12.1962 640.925 12.1962C639.452 12.0064 637.979 12.1962 636.801 12.1962C635.623 12.386 634.741 12.7657 635.036 13.1453ZM607.953 19.4098C607.168 19.4098 606.48 19.4098 605.891 19.4098C605.007 19.4098 603.83 19.5996 603.536 19.7894C603.242 20.1691 605.01 20.5488 606.188 20.3589C607.759 20.3589 609.134 20.2957 610.312 20.1691C611.195 19.9793 611.784 19.9793 611.488 19.5996C611.488 19.5996 610.899 19.4098 610.31 19.4098C609.426 19.4098 608.542 19.4098 607.953 19.4098ZM436.528 23.5861C436.527 23.2064 435.643 22.8267 434.17 22.8267C432.697 22.8267 431.224 22.8267 430.636 23.2064C430.342 23.5861 431.522 24.1556 433.29 24.1556C435.057 24.1556 435.94 23.9657 436.528 23.5861ZM839.767 16.5623C841.829 16.5623 843.595 15.9928 843.005 15.6131C842.71 15.4233 842.12 15.4233 841.826 15.4233C839.764 15.4233 838.292 15.6131 838.293 15.9928C838.294 16.3725 838.883 16.3725 839.767 16.5623ZM380.241 13.9047C381.124 13.7148 380.534 13.525 379.945 13.3352C378.766 13.1453 377.588 13.1453 377 13.525C376.411 13.7148 377 13.9047 377.884 13.9047C378.768 14.0945 379.947 14.0945 380.241 13.9047ZM655.382 21.1183C656.266 21.1183 657.149 20.9284 657.149 20.7386C657.149 20.7386 656.559 20.5488 655.97 20.5488C655.675 20.5488 655.087 20.7386 654.792 20.7386C654.498 20.9284 654.793 20.9284 655.382 21.1183ZM317.499 13.9047C316.713 13.9047 316.321 13.9679 316.321 14.0945C316.321 14.0945 316.616 14.2843 316.911 14.2843C317.303 14.2843 317.794 14.2211 318.383 14.0945L317.499 13.9047ZM537.263 21.3081H536.968C536.576 21.3081 536.183 21.3081 535.79 21.3081L536.085 21.4979L537.263 21.3081ZM500.123 12.0064C500.122 11.8165 500.122 11.8165 500.122 11.8165C499.533 11.6267 498.944 11.6267 498.944 11.8165L499.239 12.0064C499.632 12.0064 499.927 12.0064 500.123 12.0064ZM418.848 21.3081C418.848 21.1815 418.553 21.1183 417.964 21.1183C417.179 21.1183 416.884 21.1815 417.081 21.3081C417.278 21.4346 417.474 21.4979 417.671 21.4979C418.26 21.4979 418.652 21.4346 418.848 21.3081ZM844.471 13.1453C844.471 13.0188 844.176 13.0188 843.587 13.1453H843.882C843.882 13.1453 844.176 13.1453 844.471 13.1453Z" fill="#B9272D"/>
<path d="M339.023 21.688C340.201 21.688 341.085 21.8778 341.086 22.2575C341.087 22.4473 340.204 22.6371 339.025 22.6371C337.847 22.6371 336.668 22.4473 336.667 22.0677C336.667 21.8778 337.844 21.688 339.023 21.688Z" fill="#B9272D"/>
<path d="M803.552 22.6372C803.847 22.6372 804.436 22.827 804.436 22.827C804.731 23.0169 804.143 23.2067 803.259 23.2067C802.964 23.2067 802.375 23.0169 802.375 23.0169C802.178 22.7638 802.57 22.6372 803.552 22.6372Z" fill="#B9272D"/>
<path d="M794.679 9.15918L794.385 9.34801L794.09 9.15918H794.679Z" fill="#B9272D"/>
</g>
<defs>
<clipPath id="clip0_240_8">
<rect width="879.753" height="22.3008" fill="white" transform="matrix(1 0 0.00267312 0.999996 460 29)"/>
</clipPath>
<clipPath id="clip1_240_8">
<rect width="918.743" height="26.8622" fill="white" transform="matrix(1 0 0.00267312 0.999996 0 0)"/>
</clipPath>
</defs>
</svg>
