<svg version="1.2" xmlns="http://www.w3.org/2000/svg" viewBox="0 0 512 512" width="512" height="512">
	<title>brasil-Icon</title>
	<style>
		.s0 { fill: #e92b2b } 
		.s1 { fill: #2a2faf } 
		.s2 { fill: #fbfbfb } 
	</style>
	<g id="USA-Icon">
		<path id="Path 0" class="s0" d="m326.3 65.7l-95.3 0.3v63c229.8 0 244-0.2 244-1.5 0-0.8-2.6-5.4-5.7-10.3-3.1-4.8-8-11.6-10.8-15.2-2.7-3.6-6.2-7.8-7.6-9.5-1.4-1.7-5.3-5.9-8.5-9.5-3.3-3.6-8.6-9.1-11.9-12.2-3.3-3.2-6.7-5.6-7.5-5.5-0.8 0.1-44.4 0.3-96.8 0.4zm40 127l-135.2 0.3v63h279.5c-1.1-23.6-2.1-35-3-40.5-0.8-5.5-2.4-13-3.4-16.8-1.1-3.7-2.1-6.6-2.3-6.5-0.2 0.2-61.2 0.4-135.6 0.5zm-355.6 127.8c-0.3 0.8 0.3 4.6 1.4 8.5 1.1 3.9 4 12.1 6.4 18.3 2.4 6.1 6.7 15.9 9.6 21.7 2.8 5.8 5.9 11.3 6.8 12.3 1.6 1.7 11.9 1.8 221.2 1.8 209.3 0 219.6-0.1 221.1-1.8 0.9-1 4-6.5 6.9-12.3 2.9-5.8 7.2-15.4 9.5-21.5 2.3-6.1 5.2-14.3 6.4-18.3 1.1-3.9 1.9-7.9 1.6-8.7-0.4-1.3-28.6-1.5-245.4-1.5-216.8 0-245 0.2-245.5 1.5zm79.9 126.2c-0.5 0.3-0.8 1-0.7 1.5 0.1 0.4 4.4 4.1 9.4 8.1 5.1 4 13.3 10 18.3 13.2 4.9 3.2 14.4 8.7 21 12.2 6.6 3.4 17.8 8.5 25 11.3 7.1 2.8 18.2 6.5 24.5 8.2 6.3 1.7 14 3.6 17 4.4 3 0.7 11.3 2 18.5 2.9 7.4 0.8 21.3 1.5 32.5 1.5 11.2 0 25.1-0.7 32.5-1.5 7.1-0.9 15.5-2.2 18.5-2.9 3-0.8 10.7-2.7 17-4.4 6.3-1.7 16.7-5.1 23-7.5 6.3-2.5 15.5-6.5 20.5-8.9 4.9-2.4 11.2-5.7 14-7.3 2.7-1.6 8.8-5.4 13.5-8.4 4.7-3 12.7-8.8 17.7-12.8 5.1-4 9.2-7.9 9-8.6-0.3-0.9-34.4-1.3-165.4-1.5-90.7-0.1-165.3 0.1-165.8 0.5z"/>
		<path id="Path 1" class="s1" d="m215.5 4.4c-4.4 0.7-9.3 1.6-11 2.1-1.7 0.4-3.4 0.9-4 1.1-0.6 0.1-6.4 1.6-13 3.4-6.6 1.7-13.3 3.7-15 4.5-1.7 0.8-6.4 2.6-10.5 4.1-4.1 1.5-10.4 4.2-14 6-3.6 1.8-7.6 3.7-9 4.3-1.4 0.5-6.6 3.4-11.5 6.3-5.1 3-9.1 6.1-9.3 7.1-0.1 1.3 0.6 1.8 3 2 1.7 0.1 3.3 0.7 3.5 1.2 0.1 0.5-2 2.6-4.8 4.5-2.8 1.9-5.5 4-6 4.5-0.5 0.6 0.1 3.9 1.4 7.7 1.2 3.7 1.9 7.1 1.4 7.5-0.4 0.4-3.4-1.1-6.7-3.4l-6-4.3c-9.3 6.2-12.5 8-13 8-0.6 0-0.7-1.4-0.2-3.7l0.7-3.7c-3.9 2.1-10 7.7-16 13.8-6 6.1-14.1 14.9-17.8 19.6-3.8 4.7-9.1 11.9-11.8 16l-5 7.5c5.8 0.8 7.6 1.5 7.8 2 0.1 0.5-2 2.6-4.8 4.5-2.8 1.9-5.5 3.9-6 4.5-0.5 0.6-0.1 3.5 1.1 7 1.1 3.3 2 6.6 2 7.2 0 0.7-0.6 1.3-1.2 1.3-0.7 0-3.1-1.4-5.3-3-2.2-1.6-4.4-2.7-5-2.4-0.5 0.2-2.7 3.9-4.7 8.2-2 4.2-4.7 10.4-5.8 13.7-1.2 3.3-2.8 7.3-3.5 9-0.8 1.7-2.5 7.5-4 13-1.4 5.5-2.5 10.3-2.5 10.8 0 0.4 3 0.6 6.7 0.4l6.7-0.2c3.2-10 4.6-13 5.1-13.2 0.6-0.2 2 2.8 3.3 6.7l2.2 7c10.8-0.1 12.9 0.4 14 1.5 1 1.1 1.1 1.9 0.5 2.3-0.6 0.4-3.2 2.2-5.8 3.9-2.6 1.8-4.7 3.4-4.7 3.5 0 0.2 0.9 3 2 6.3 1.1 3.3 2 6.6 2 7.2 0 0.7-0.6 1.3-1.2 1.3-0.7-0.1-3.3-1.6-5.8-3.4-2.5-1.8-4.9-3.6-5.5-3.9-0.5-0.4-3.7 1.3-7 3.8-3.3 2.4-6.3 4.1-6.8 3.7-0.4-0.4 0.2-3.6 1.3-7.2 1.1-3.6 2-6.9 2-7.5 0-0.6-2.3-2.5-5-4.3l-5-3.2c-0.9 4.3-1.6 7.1-2.1 9-0.4 1.9-1.5 8.8-2.4 15.2-0.8 6.5-1.5 16.1-1.5 21.3v9.5h229c0-237.1-0.2-252.1-1.5-252.5-0.8-0.3-2.5-0.5-3.7-0.4-1.3 0.1-5.9 0.7-10.3 1.3z"/>
		<path id="Path 2" class="s2" d="m231.5 2.7c-0.5 0.3-0.8 14.7-0.7 32l0.2 31.3c157.3 0 190.2-0.3 190.5-1 0.3-0.5-0.1-1.7-0.8-2.6-0.6-0.9-4.8-4.4-9.2-7.8-4.4-3.4-10.2-7.7-13-9.6-2.7-1.9-8.1-5.4-12-7.7-3.8-2.3-11.6-6.4-17.3-9.2-5.6-2.8-14.8-6.9-20.4-9.2-5.7-2.2-15.9-5.6-22.8-7.6-6.9-1.9-16.6-4.3-21.5-5.3-4.9-1-13.4-2.3-18.8-2.9-5.3-0.6-19.5-1.1-31.5-1.1-12 0-22.2 0.3-22.7 0.7zm-119.5 43.5c-1.9 1.1-7.2 4.9-11.8 8.4-5.8 4.5-8.4 7.2-8.8 9.2-0.3 1.5-0.7 3.7-1 5-0.2 1.2 0.1 2.2 0.6 2.2 0.5 0 3.7-1.8 7-4l6-4c9.3 6.6 12.3 8.1 12.7 7.7 0.5-0.4 0-3.3-1.1-6.5-1-3.1-2-6.3-2.2-6.9-0.2-0.7 2.2-3.2 5.4-5.5 3.1-2.2 5.9-4.3 6.2-4.5 0.3-0.2 0-0.7-0.5-1.2-0.5-0.5-2.8-1.1-5-1.4-3.1-0.5-4.9-0.2-7.5 1.5zm-76.4 82.5c-2.6 4.3-4.9 8.6-5.1 9.6-0.3 1 0.6 2.7 2.3 4.2 1.5 1.3 3.7 3 4.9 3.7 1.3 0.7 2.6 0.9 3 0.5 0.5-0.4-0.2-3.8-1.4-7.5-1.3-3.8-1.9-7.1-1.4-7.7 0.5-0.6 3.2-2.6 6-4.5 2.8-1.9 4.9-4 4.8-4.5-0.2-0.5-2.2-1.1-4.3-1.3l-4-0.3zm195.3 32.3v32c254.1 0 270.1-0.2 270.5-1.5 0.3-0.8-0.6-5.2-1.9-9.7-1.4-4.6-4.3-12.9-6.5-18.5-2.3-5.7-6.3-14.9-9.1-20.5-2.7-5.7-5.5-11.1-6.2-12-1.2-1.6-9.4-1.7-124-1.8h-122.8zm-204.9 24.3c-0.5 1.2-1.6 4.2-2.3 6.7l-1.4 4.5c-12.5 0.9-13.9 1.3-14.1 2.8-0.2 1.1 1.4 2.8 4.7 5 2.7 1.7 5 3.7 5 4.2 0 0.6-0.9 3.9-2 7.5-1.1 3.6-1.7 6.8-1.2 7.2 0.4 0.4 3.4-1.3 6.7-3.7 3.3-2.5 6.5-4.2 7-3.8 0.6 0.3 3 2.1 5.5 3.9 2.5 1.8 5.1 3.3 5.8 3.4 0.7 0 1.2-0.6 1.2-1.2 0-0.7-0.9-4-2-7.3-1.1-3.3-2-6.1-2-6.2 0-0.2 2.1-1.8 4.7-3.5 2.6-1.8 5.2-3.6 5.8-4 0.7-0.4 0.5-1.2-0.5-2.3-1.1-1.1-3.2-1.6-7.7-1.5h-6.3c-2.9-10.8-4.2-14-4.9-14-0.6 0-1.5 1-2 2.3zm-23.8 86.5c0.3 8.6 1.5 20.9 2.5 27.2 1.1 6.3 2.7 13.5 3.6 16l1.7 4.5h491.8c2.7-7 4.3-14.2 5.3-20.5 1.1-6.3 2.2-18.6 2.6-27.3l0.7-15.7h-508.8zm34.8 113c0 1 1.3 3.6 2.7 5.9 1.5 2.2 4 5.9 5.5 8.2 1.5 2.3 5.8 8.1 9.5 12.9 3.7 4.8 12.3 14.5 19.2 21.5l12.5 12.8h338.5c9.1-8.2 15.5-14.8 20.2-20 4.7-5.3 11.4-13.5 14.9-18.2 3.5-4.8 7.3-10 8.4-11.5 1.1-1.5 3-4.5 4.3-6.6 1.2-2 2.2-4.4 2.2-5.2 0-1.4-25-1.5-219-1.5-207.9 0-219 0-218.9 1.7zm139.7-347.5l-2.4 7.3c-13 0.4-15.4 0.8-15.4 1.7-0.1 0.7 2.4 3.1 5.5 5.3 3.1 2.2 5.6 4.6 5.6 5.5 0 0.8-1 4-2.1 7.2-1.1 3.2-1.8 6.2-1.5 6.8 0.3 0.5 1.9-0.1 3.8-1.4 1.8-1.2 4.6-3.3 6.2-4.6l3-2.3c9.7 6.4 13 8 13.5 7.8 0.6-0.4 0.2-2.5-1-5.5-1.1-2.8-2-6.1-2-7.3 0-1.6 1.6-3.4 5.5-6.2 3-2.2 5.3-4.5 5.2-5-0.2-0.6-3.7-1.3-7.8-1.5l-7.4-0.5c-3.4-11.3-4.8-14.5-5.3-14.5-0.6 0-2.1 3.2-3.4 7.2zm0 76l-2.4 7.3c-11.9 0.7-15.5 1.4-15.6 2-0.1 0.5 2.4 2.8 5.6 5 3.1 2.2 5.7 4.6 5.7 5.5 0 0.8-1 4-2.1 7.2-1.1 3.2-1.8 6.2-1.5 6.8 0.3 0.5 3.4-1.1 7-3.5l6.5-4.5c8.9 6.3 12.1 7.9 12.8 7.6 0.9-0.5 0.6-2.2-1.2-6.9-2-5-2.3-6.6-1.3-7.8 0.7-0.9 3.4-3.2 6-5 2.6-1.9 4.8-4 4.7-4.7 0-0.9-2.2-1.2-7.7-1.2h-7.8c-3.3-11.7-4.7-15-5.3-15-0.6 0-2.1 3.2-3.4 7.2zm-74.3-5c-0.3 0.7-1.3 3.7-2.3 6.8l-1.9 5.5c-11.1 0.4-14.9 0.9-15.6 1.4-0.8 0.6 0.7 2.2 5 5.2 3.5 2.4 6.3 4.9 6.3 5.6 0 0.7-0.9 4.1-1.9 7.5-1.1 3.4-1.8 6.6-1.5 7 0.2 0.4 1.9-0.3 3.7-1.6 1.8-1.2 4.6-3.3 6.2-4.6l3-2.3c8.9 6.4 12 8.3 12.5 8.3 0.6 0 1-0.6 1-1.3 0-0.7-0.9-3.9-2-7.2-1.1-3.3-2-6.2-2-6.3 0-0.1 2.6-2.1 5.8-4.3 3.1-2.2 5.7-4.6 5.7-5.3 0-0.7-2.5-1.2-7.5-1.4l-7.5-0.3c-3.5-10.8-4.9-13.9-5.5-13.9-0.6 0-1.2 0.5-1.5 1.2zm74.3 81l-2.3 7.3c-12.1 0.8-14 1.4-14.3 2.5-0.2 0.8 1.8 2.9 4.7 5 2.8 1.9 5.1 4.1 5.1 5 0 0.8-0.9 4.2-2 7.5-1.1 3.3-1.6 6.3-1.2 6.7 0.4 0.4 3.5-1.3 7-3.7l6.2-4.5c8.5 6.2 11.5 8 12 8 0.6 0 1-0.6 1-1.3 0-0.7-0.9-3.8-2-7-1.9-5.5-1.9-5.8-0.2-7.5 1-1 3.5-2.9 5.5-4.2 2.1-1.4 3.6-3.2 3.5-4-0.2-1.2-2-1.6-7.3-1.8l-7-0.3c-3.3-11.6-4.7-14.9-5.3-14.9-0.5 0-2.1 3.2-3.4 7.2zm-74.3-5c-0.3 0.7-1.3 3.7-2.3 6.8l-1.9 5.5c-10.7 0.3-13.2 0.9-14 1.9-1.1 1.3-0.4 2.1 4.2 5.3 3 2.1 5.5 4.4 5.5 5.3 0 0.8-0.9 4-2 7.2-1.1 3.2-1.8 6.2-1.5 6.8 0.3 0.5 3.4-1.1 7-3.5l6.5-4.5c8.2 6.1 11.1 7.9 11.8 7.9 0.7 0 1.2-0.5 1.2-1.2 0-0.7-0.8-3.7-1.9-6.7-1.5-4.4-1.7-5.9-0.8-7.1 0.7-0.9 3-2.9 5.2-4.4 2.2-1.6 4.2-3 4.5-3.2 0.3-0.2-0.2-1-1-1.9-1-1.1-3.3-1.5-7.5-1.5l-6 0.1c-3.5-10.9-4.9-14-5.5-14-0.6 0-1.2 0.5-1.5 1.2z"/>
	</g>
</svg>